<svg width="78" height="78" viewBox="0 0 78 78" fill="none" xmlns="http://www.w3.org/2000/svg">
<path d="M27.0802 18.3149C26.8561 19.0046 27.0767 19.7437 27.6419 20.1982L32.6745 24.2432L30.9806 30.4739C30.7905 31.1735 31.0466 31.9011 31.6336 32.328C32.2207 32.7539 32.9914 32.7726 33.5982 32.3756L39.0005 28.8393L44.4029 32.3758C44.6844 32.5614 45.0141 32.6606 45.3514 32.6611C45.7167 32.6606 46.0725 32.5439 46.3672 32.328C46.9545 31.9015 47.2107 31.1735 47.0201 30.4739L45.3262 24.2434L50.3586 20.1985C50.9243 19.7442 51.1449 19.0049 50.9206 18.3149C50.6965 17.6248 50.0835 17.1563 49.3591 17.1213L42.9099 16.8069L40.6181 10.7707C40.3607 10.0926 39.7256 9.65433 39.0003 9.65433C38.275 9.65433 37.6399 10.0925 37.3827 10.7706L35.0907 16.807L28.642 17.1213C27.9173 17.1563 27.3043 17.6248 27.0802 18.3149ZM35.6718 19.2189C36.008 19.2026 36.3322 19.0885 36.6046 18.8906C36.8769 18.6927 37.0856 18.4196 37.2049 18.1048L39.0002 13.3768L40.7954 18.1053C40.915 18.4199 41.1237 18.6928 41.396 18.8906C41.6683 19.0884 41.9924 19.2025 42.3286 19.2189L47.3798 19.4653L43.4378 22.6336C43.1754 22.8445 42.9802 23.1273 42.8762 23.4475C42.7722 23.7677 42.7638 24.1112 42.8522 24.4361L44.1789 29.3163L39.9474 26.5462C39.6657 26.3619 39.3364 26.2637 38.9998 26.2638C38.6631 26.2638 38.3338 26.362 38.0521 26.5464L33.8209 29.3163L35.1477 24.4364C35.2361 24.1115 35.2278 23.7678 35.1238 23.4476C35.0197 23.1273 34.8245 22.8444 34.5619 22.6336L30.62 19.4654L35.6718 19.2189ZM37.7814 5.69126V1.21875C37.7814 0.895517 37.9098 0.585524 38.1384 0.356964C38.3669 0.128404 38.6769 0 39.0002 0C39.3234 0 39.6334 0.128404 39.8619 0.356964C40.0905 0.585524 40.2189 0.895517 40.2189 1.21875V5.69126C40.2189 6.01449 40.0905 6.32448 39.8619 6.55304C39.6334 6.7816 39.3234 6.91001 39.0002 6.91001C38.6769 6.91001 38.3669 6.7816 38.1384 6.55304C37.9098 6.32448 37.7814 6.01449 37.7814 5.69126ZM45.2034 12.912C44.9872 12.6718 44.8752 12.3556 44.8921 12.0328C44.909 11.71 45.0534 11.4072 45.2936 11.1909L50.2776 6.70312C50.3965 6.59602 50.5354 6.51339 50.6862 6.45996C50.8371 6.40653 50.997 6.38333 51.1569 6.3917C51.3167 6.40006 51.4733 6.43983 51.6178 6.50873C51.7622 6.57762 51.8917 6.6743 51.9988 6.79324C52.1059 6.91217 52.1885 7.05104 52.242 7.20191C52.2954 7.35278 52.3186 7.51269 52.3102 7.67253C52.3019 7.83236 52.2621 7.98898 52.1932 8.13344C52.1243 8.27791 52.0276 8.40739 51.9087 8.51449L46.9246 13.0022C46.7011 13.2041 46.4106 13.3157 46.1094 13.3153C45.9386 13.3155 45.7696 13.2797 45.6134 13.2103C45.4573 13.1408 45.3176 13.0392 45.2034 12.912ZM26.0014 6.79331C26.1085 6.67436 26.238 6.57766 26.3825 6.50875C26.527 6.43984 26.6836 6.40006 26.8434 6.39168C27.0033 6.38331 27.1632 6.4065 27.3141 6.45994C27.465 6.51338 27.6038 6.59601 27.7228 6.70312L32.7068 11.1909C32.947 11.4072 33.0915 11.71 33.1084 12.0328C33.1253 12.3556 33.0133 12.6719 32.797 12.9121C32.5807 13.1523 32.2778 13.2968 31.955 13.3137C31.6322 13.3306 31.3159 13.2185 31.0757 13.0022L26.0916 8.51449C25.8514 8.29821 25.707 7.99536 25.6901 7.67258C25.6732 7.3498 25.7852 7.03352 26.0014 6.79331ZM54.6358 20.1982L59.6685 24.2432L57.9746 30.4739C57.7845 31.1735 58.0405 31.9011 58.6275 32.328C59.2142 32.7539 59.9851 32.7725 60.5921 32.3756L65.9944 28.8393L71.3968 32.3758C71.6784 32.5614 72.0081 32.6606 72.3453 32.6611C72.7107 32.6606 73.0664 32.5439 73.3611 32.328C73.9481 31.9018 74.2044 31.1741 74.0141 30.4739L72.3202 24.2434L77.3525 20.1985C77.9181 19.7444 78.1386 19.005 77.9144 18.3149C77.6903 17.6248 77.0773 17.1563 76.353 17.1213L69.9039 16.8069L67.6122 10.7707C67.3548 10.0926 66.7197 9.65433 65.9944 9.65433C65.269 9.65433 64.6338 10.0925 64.3765 10.7706L62.0848 16.8069L55.6361 17.1212C54.9113 17.1562 54.2982 17.6248 54.0741 18.3149C53.8499 19.0049 54.0705 19.7442 54.6358 20.1982ZM62.6656 19.2189C63.0019 19.2026 63.3261 19.0885 63.5986 18.8906C63.871 18.6926 64.0797 18.4195 64.1992 18.1047L65.9943 13.3767L67.7892 18.1045C67.9086 18.4193 68.1173 18.6925 68.3897 18.8904C68.6621 19.0883 68.9864 19.2024 69.3227 19.2188L74.3739 19.4651L70.4323 22.6331C70.1698 22.8439 69.9744 23.1268 69.8703 23.4471C69.7662 23.7673 69.7579 24.111 69.8463 24.4359L71.173 29.3161L66.9415 26.5461C66.6599 26.3616 66.3305 26.2634 65.9939 26.2634C65.6572 26.2634 65.3278 26.3617 65.0462 26.5462L60.815 29.3161L62.1418 24.4362C62.2301 24.1113 62.2218 23.7677 62.1178 23.4475C62.0137 23.1272 61.8185 22.8443 61.556 22.6334L57.6141 19.4651L62.6656 19.2189ZM0.647627 20.1982L5.6803 24.2432L3.98639 30.4739C3.79627 31.1735 4.05236 31.9011 4.63934 32.328C5.22647 32.7539 5.99718 32.7726 6.60396 32.3756L12.0062 28.8393L17.4086 32.3758C17.6902 32.5614 18.0199 32.6606 18.3571 32.6611C18.7225 32.6606 19.0782 32.5439 19.373 32.328C19.9599 31.9018 20.2162 31.1741 20.0259 30.4739L18.332 24.2434L23.3644 20.1985C23.9296 19.7447 24.1503 19.0055 23.9262 18.3142C23.7017 17.6245 23.0886 17.1562 22.3648 17.1212L15.9157 16.8067L13.624 10.7707C13.3667 10.0926 12.7315 9.65433 12.0062 9.65433C11.2808 9.65433 10.6456 10.0925 10.3883 10.7706L8.09663 16.8069L1.64792 17.1212C0.923217 17.1562 0.310186 17.6248 0.0862402 18.3142C-0.138467 19.0044 0.0819746 19.7441 0.647627 20.1982ZM8.67736 19.2189C9.0137 19.2026 9.33796 19.0885 9.61038 18.8906C9.88281 18.6926 10.0915 18.4195 10.211 18.1047L12.0061 13.3767L13.801 18.1045C13.9204 18.4193 14.1291 18.6925 14.4015 18.8904C14.6739 19.0883 14.9982 19.2024 15.3345 19.2188L20.3857 19.4651L16.4442 22.6331C16.1816 22.8439 15.9863 23.1268 15.8821 23.4471C15.778 23.7673 15.7697 24.111 15.8581 24.4359L17.1848 29.3161L12.9533 26.5461C12.6717 26.3616 12.3423 26.2634 12.0057 26.2634C11.669 26.2634 11.3397 26.3617 11.058 26.5462L6.82684 29.3161L8.1536 24.4362C8.24197 24.1113 8.23361 23.7677 8.12956 23.4475C8.02552 23.1272 7.8303 22.8443 7.56784 22.6334L3.62595 19.4651L8.67736 19.2189ZM77.8084 64.7359C76.9508 61.9666 75.1945 59.48 72.8625 57.7339C71.7614 56.9082 70.5431 56.2516 69.248 55.7858C71.026 54.3904 72.1716 52.224 72.1716 49.7937C72.1716 45.5942 68.755 42.1777 64.5557 42.1777C60.3562 42.1777 56.9396 45.5942 56.9396 49.7937C56.9396 52.2212 58.0824 54.3853 59.8569 55.781C57.4787 56.6298 55.3718 58.1213 53.7583 60.131C52.9983 59.0674 52.126 58.0887 51.1564 57.2118C49.2064 55.4467 46.895 54.1281 44.3832 53.3477C47.0241 51.597 48.77 48.5993 48.77 45.2004C48.77 39.8135 44.3872 35.4309 39.0003 35.4309C33.6134 35.4309 29.2307 39.8135 29.2307 45.2004C29.2307 48.5993 30.9764 51.597 33.6173 53.3477C31.1054 54.128 28.7939 55.4466 26.8439 57.2118C25.8744 58.0886 25.0022 59.0673 24.2422 60.1308C22.6289 58.121 20.5219 56.6295 18.1435 55.7805C19.9179 54.3849 21.0609 52.2207 21.0609 49.7932C21.0609 45.5937 17.6443 42.1773 13.445 42.1773C9.24545 42.1773 5.82884 45.5937 5.82884 49.7932C5.82884 52.2234 6.97446 54.3899 8.75231 55.7854C7.45718 56.2512 6.23886 56.9078 5.13765 57.7334C2.80573 59.4794 1.04936 61.9661 0.191814 64.7353C-0.204432 66.0144 0.0150957 67.3125 0.809873 68.3908C1.6045 69.4688 2.77968 70.0623 4.11878 70.0623H20.9669V72.2618C20.9669 75.426 23.5411 78.0002 26.7053 78.0002H51.2951C54.4591 78.0002 57.0334 75.426 57.0336 72.2618V70.0629H73.8816C75.2208 70.0629 76.396 69.4692 77.1905 68.3914C77.9851 67.3131 78.2046 66.0148 77.8084 64.7359ZM64.5557 44.6152C67.4111 44.6152 69.7341 46.9383 69.7341 49.7937C69.7341 52.6492 67.4111 54.9723 64.5557 54.9723C61.7001 54.9723 59.3771 52.6492 59.3771 49.7937C59.3771 46.9383 61.7001 44.6152 64.5557 44.6152ZM31.6682 45.2004C31.6682 41.1575 34.9574 37.8684 39.0003 37.8684C43.0432 37.8684 46.3325 41.1575 46.3325 45.2004C46.3325 49.2421 43.0453 52.5303 39.0043 52.5324H38.9962C34.9551 52.5301 31.6682 49.2419 31.6682 45.2004ZM13.445 44.6146C16.3003 44.6146 18.6234 46.9377 18.6234 49.7931C18.6234 52.6486 16.3003 54.9717 13.445 54.9717C10.5894 54.9717 8.26634 52.6486 8.26634 49.7931C8.26634 46.9377 10.5894 44.6146 13.445 44.6146ZM21.1252 67.6246H4.11893C3.558 67.6246 3.10493 67.3958 2.77206 66.9443C2.43904 66.4927 2.35449 65.9921 2.52039 65.4563C4.01092 60.643 8.40131 57.4092 13.445 57.4092C17.2601 57.4092 20.7355 59.2526 22.8731 62.373C22.0237 64.0232 21.4341 65.7946 21.1252 67.6246ZM54.5961 72.2617C54.5959 74.0817 53.1151 75.5625 51.2951 75.5625H26.7053C24.8852 75.5625 23.4044 74.0817 23.4044 72.2617V68.9096C24.2868 60.9591 30.9784 54.9719 38.9962 54.9699L39.0003 54.97L39.0043 54.9699C47.022 54.972 53.7134 60.9591 54.5961 68.9096V72.2617ZM75.2284 66.945C74.8956 67.3964 74.4426 67.6252 73.8816 67.6252H56.8754C56.5663 65.7951 55.9768 64.0237 55.1276 62.3733C57.2653 59.253 60.7405 57.4098 64.5555 57.4098C69.5992 57.4098 73.9896 60.6438 75.4801 65.4571C75.646 65.9926 75.5613 66.4932 75.2284 66.945Z" fill="black"/>
</svg>
