<svg width="70" height="76" viewBox="0 0 70 76" fill="none" xmlns="http://www.w3.org/2000/svg">
<path fill-rule="evenodd" clip-rule="evenodd" d="M47.1632 23.9999L42.511 32.0579C41.9282 33.0673 40.6372 33.4132 39.6276 32.8304L30.8971 27.7899C29.8877 27.207 29.5418 25.9161 30.1246 24.9065L34.7769 16.8486L32.126 15.318C31.2897 14.8353 31.0028 13.7643 31.4856 12.928L34.2017 8.22367C34.6846 7.38739 35.7555 7.10032 36.5917 7.58315L39.2427 9.11364L43.8948 1.05578C44.4777 0.0462135 45.7687 -0.299739 46.7782 0.283119L55.5087 5.32375C56.5183 5.90661 56.8641 7.19744 56.2812 8.207L51.6291 16.265L68.6803 26.1095C69.5165 26.5924 69.8035 27.6633 69.3207 28.4995L66.6046 33.204C66.1218 34.0403 65.0507 34.3272 64.2146 33.8444L47.1632 23.9999ZM35.8475 14.9942L38.1721 10.968L35.8602 9.63333L33.5357 13.6595L35.8475 14.9942ZM50.5585 18.1193L48.2338 22.1456L64.946 31.7944L67.2705 27.768L50.5585 18.1193ZM31.9942 25.9508L40.6719 30.9608L54.4117 7.16272L45.734 2.15267L31.9942 25.9508ZM13.7845 53.4521C6.62964 53.291 0.783316 47.8301 0.0149393 40.8443C-0.0224731 40.5126 0.0105752 40.1766 0.111922 39.8585C0.21327 39.5403 0.380633 39.2472 0.603067 38.9982C0.825501 38.7491 1.09799 38.5499 1.40273 38.4134C1.70746 38.277 2.03757 38.2064 2.37146 38.2063C4.78365 38.205 9.89586 38.2046 13.7845 38.2043V36.8663C13.7845 36.5824 13.8973 36.3101 14.0981 36.1093C14.2989 35.9086 14.5712 35.7958 14.8551 35.7958H57.2307C57.5146 35.7958 57.7869 35.9086 57.9877 36.1093C58.1885 36.3101 58.3013 36.5824 58.3013 36.8663V39.4717H63.6252C63.9091 39.4717 64.1814 39.5845 64.3822 39.7853C64.583 39.986 64.6958 40.2583 64.6958 40.5423V51.1176C64.6958 51.4015 64.583 51.6738 64.3822 51.8746C64.1814 52.0754 63.9091 52.1881 63.6252 52.1881H58.3013V54.7935C58.3013 55.0774 58.1885 55.3497 57.9877 55.5505C57.7869 55.7513 57.5146 55.8641 57.2307 55.8641H51.9379C52.0486 57.1326 52.2918 58.7639 52.8165 60.4173C53.1391 61.4333 53.8216 62.9396 54.521 64.3815H57.2307C57.5146 64.3815 57.7869 64.4943 57.9877 64.6951C58.1885 64.8959 58.3013 65.1682 58.3013 65.4521V74.102C58.3013 74.386 58.1885 74.6583 57.9877 74.859C57.7869 75.0598 57.5146 75.1726 57.2307 75.1726H14.8551C14.5712 75.1726 14.2989 75.0598 14.0981 74.859C13.8973 74.6583 13.7845 74.386 13.7845 74.102V65.4521C13.7845 65.1682 13.8973 64.8959 14.0981 64.6951C14.2989 64.4943 14.5712 64.3815 14.8551 64.3815H17.6402C18.2685 63.0768 18.8867 61.6572 19.2669 60.4254C19.7953 58.7129 20.0414 57.1044 20.153 55.8641H14.8551C14.5712 55.8641 14.2989 55.7513 14.0981 55.5505C13.8973 55.3497 13.7845 55.0774 13.7845 54.7935V53.4521ZM13.7845 40.3455C9.89616 40.3458 4.78441 40.3462 2.37253 40.3474H2.37207C2.33957 40.3475 2.30743 40.3543 2.27777 40.3676C2.24811 40.3809 2.22158 40.4003 2.19992 40.4245C2.17827 40.4488 2.16198 40.4773 2.15211 40.5083C2.14224 40.5392 2.13902 40.5719 2.14266 40.6042L2.14296 40.6071C2.79373 46.5241 7.73296 51.1497 13.7845 51.3101V40.3455ZM58.3013 41.6129V50.047H62.5546V41.6129H58.3013ZM49.7895 55.8641H22.3018C22.1877 57.2479 21.9198 59.0898 21.3128 61.0567C20.9931 62.0926 20.5188 63.2539 20.0047 64.3815H52.1498C51.571 63.1432 51.0516 61.9345 50.7757 61.065C50.1712 59.1609 49.904 57.2838 49.7895 55.8641ZM56.1601 66.5227H15.9257V73.0314H56.1601V66.5227ZM56.1601 37.9369H15.9257V53.7229H56.1601V37.9369ZM15.782 27.031C15.3045 26.5534 15.3045 25.7781 15.782 25.3006C16.2594 24.8231 17.0347 24.8231 17.5123 25.3006L22.2093 29.9976C22.6868 30.4751 22.6868 31.2505 22.2093 31.728C21.7318 32.2055 20.9564 32.2055 20.4789 31.728L15.782 27.031ZM21.8606 21.7577C21.7768 21.4443 21.8208 21.1104 21.983 20.8295C22.1452 20.5485 22.4123 20.3434 22.7256 20.2592C23.3779 20.0846 24.0495 20.4721 24.2242 21.1244L25.9435 27.5408C26.0273 27.8542 25.9833 28.1881 25.8211 28.4691C25.6588 28.7501 25.3917 28.9551 25.0783 29.0393C24.7649 29.1231 24.431 29.079 24.15 28.9168C23.869 28.7546 23.6639 28.4874 23.5798 28.1741L21.8606 21.7577ZM48.9658 26.9545C49.4432 26.477 50.2187 26.477 50.6961 26.9545C51.1736 27.432 51.1736 28.2074 50.6961 28.6849L47.5697 31.8112C47.3402 32.0406 47.0291 32.1694 46.7046 32.1694C46.3801 32.1694 46.069 32.0406 45.8395 31.8112C45.6101 31.5817 45.4812 31.2705 45.4812 30.9461C45.4812 30.6216 45.6101 30.3104 45.8395 30.081L48.9658 26.9545ZM53.3356 30.9619C53.649 30.8781 53.9829 30.9221 54.2639 31.0843C54.5448 31.2465 54.75 31.5136 54.8341 31.8269C54.918 32.1404 54.8739 32.4743 54.7117 32.7553C54.5495 33.0363 54.2823 33.2414 53.9689 33.3255L49.6982 34.4699C49.3848 34.5537 49.0509 34.5096 48.7699 34.3474C48.4889 34.1852 48.2838 33.9181 48.1997 33.6047C48.1159 33.2913 48.1599 32.9574 48.3221 32.6764C48.4844 32.3954 48.7515 32.1903 49.0649 32.1062L53.3356 30.9619Z" fill="black"/>
</svg>
