<svg width="76" height="76" viewBox="0 0 76 76" fill="none" xmlns="http://www.w3.org/2000/svg">
<path d="M28.3713 66.6863C28.2741 66.5392 28.142 66.4185 27.9867 66.335C27.8315 66.2514 27.6579 66.2077 27.4816 66.2077H1.06641C0.783578 66.2077 0.512333 66.32 0.312343 66.52C0.112353 66.72 0 66.9913 0 67.2741V74.1914C0 74.4742 0.112353 74.7455 0.312343 74.9455C0.512333 75.1455 0.783578 75.2578 1.06641 75.2578H32.0519C32.2446 75.2578 32.4336 75.2056 32.599 75.1068C32.7643 75.008 32.8998 74.8662 32.9911 74.6965C33.0823 74.5268 33.1259 74.3356 33.1172 74.1432C33.1085 73.9507 33.0478 73.7642 32.9416 73.6035L28.3713 66.6863ZM2.13281 73.125V68.3406H26.9079L30.0693 73.125H2.13281ZM45.5017 55.2193C45.7846 55.2193 46.0558 55.1069 46.2558 54.9069C46.4558 54.7069 46.5681 54.4357 46.5681 54.1529V46.2997L51.3296 41.0332C51.5068 40.8372 51.605 40.5823 51.6051 40.3181V14.4903H57.2694C57.4764 14.4903 57.6789 14.4301 57.8523 14.3169C58.0256 14.2038 58.1623 14.0426 58.2456 13.8531L61.0125 7.56067H74.1914C74.4742 7.56067 74.7455 7.44831 74.9455 7.24832C75.1455 7.04833 75.2578 6.77709 75.2578 6.49426V1.06641C75.2578 0.783578 75.1455 0.512333 74.9455 0.312343C74.7455 0.112353 74.4742 0 74.1914 0H1.06641C0.783578 0 0.512333 0.112353 0.312343 0.312343C0.112353 0.512333 0 0.783578 0 1.06641V6.49426C0 6.77709 0.112353 7.04833 0.312343 7.24832C0.512333 7.44831 0.783578 7.56067 1.06641 7.56067H14.2457L17.0125 13.8531C17.0958 14.0426 17.2325 14.2038 17.4059 14.3169C17.5792 14.4301 17.7817 14.4903 17.9888 14.4903H23.653V40.3181C23.653 40.5822 23.7512 40.8371 23.9285 41.0332L28.6898 46.2997V54.1529C28.6898 54.4357 28.8022 54.7069 29.0022 54.9069C29.2022 55.1069 29.4734 55.2193 29.7562 55.2193H33.9027V69.6209C33.9027 69.9319 34.0385 70.2271 34.2741 70.4299L39.5941 75.0004C39.7489 75.1333 39.9386 75.2191 40.1407 75.2475C40.3428 75.2759 40.5488 75.2458 40.7342 75.1606C40.9196 75.0754 41.0768 74.9389 41.1869 74.7671C41.297 74.5953 41.3556 74.3955 41.3555 74.1914V55.2193H45.5017ZM30.2294 44.8227L27.1208 41.3845H48.1367L45.0281 44.8227H30.2294ZM2.13281 2.13281H73.125V5.42786H2.13281V2.13281ZM16.5753 7.56067H58.6824L56.5732 12.3574H18.6847L16.5753 7.56067ZM49.4721 14.4903V39.2517H25.7857V14.4903H49.4721ZM30.8225 46.9555H32.6261V49.9741C32.6261 50.2569 32.7384 50.5282 32.9384 50.7281C33.1384 50.9281 33.4097 51.0405 33.6925 51.0405C33.9753 51.0405 34.2466 50.9281 34.4466 50.7281C34.6465 50.5282 34.7589 50.2569 34.7589 49.9741V46.9555H36.5625V49.9741C36.5625 50.2569 36.6749 50.5282 36.8748 50.7281C37.0748 50.9281 37.3461 51.0405 37.6289 51.0405C37.9117 51.0405 38.183 50.9281 38.383 50.7281C38.583 50.5282 38.6953 50.2569 38.6953 49.9741V46.9555H40.4988V49.9741C40.4988 50.2569 40.6111 50.5282 40.8111 50.7281C41.0111 50.9281 41.2823 51.0405 41.5652 51.0405C41.848 51.0405 42.1192 50.9281 42.3192 50.7281C42.5192 50.5282 42.6316 50.2569 42.6316 49.9741V46.9555H44.4353V53.0865H30.8225V46.9555ZM39.2226 71.8694L36.0354 69.1312V55.2193H39.2226V71.8694ZM37.6289 34.9755C42.0978 34.9755 45.7336 31.3399 45.7336 26.871C45.7336 22.4021 42.0978 18.7663 37.6289 18.7663C33.1601 18.7663 29.5242 22.4021 29.5242 26.871C29.5244 31.3399 33.1601 34.9755 37.6289 34.9755ZM37.6289 20.8991C40.9218 20.8991 43.6008 23.5781 43.6008 26.871C43.6008 30.1639 40.9218 32.8427 37.6289 32.8427C34.336 32.8427 31.657 30.1639 31.657 26.871C31.6572 23.5781 34.336 20.8991 37.6289 20.8991ZM74.1914 66.2078H49.8259C49.6495 66.2078 49.476 66.2515 49.3207 66.3351C49.1654 66.4186 49.0333 66.5394 48.9362 66.6865L44.3657 73.6037C44.2595 73.7644 44.1988 73.9509 44.1901 74.1433C44.1814 74.3357 44.2251 74.5269 44.3163 74.6966C44.4076 74.8663 44.543 75.0081 44.7084 75.1069C44.8738 75.2058 45.0629 75.258 45.2555 75.258H74.1914C74.4742 75.258 74.7455 75.1456 74.9455 74.9456C75.1455 74.7456 75.2578 74.4744 75.2578 74.1916V67.2744C75.2578 67.1343 75.2303 66.9956 75.1767 66.8662C75.1231 66.7368 75.0445 66.6193 74.9455 66.5202C74.8465 66.4212 74.7289 66.3426 74.5995 66.289C74.4701 66.2354 74.3315 66.2078 74.1914 66.2078ZM73.125 73.125H47.2381L50.3993 68.3406H73.125V73.125ZM26.2018 58.6086L30.2648 62.6715C30.4647 62.8715 30.5771 63.1427 30.5771 63.4256C30.5771 63.7084 30.4647 63.9796 30.2647 64.1796C30.0647 64.3796 29.7934 64.4919 29.5106 64.4919C29.2278 64.4919 28.9565 64.3795 28.7566 64.1795L24.6936 60.1168C24.4936 59.9168 24.3812 59.6456 24.3812 59.3627C24.3812 59.0799 24.4936 58.8086 24.6936 58.6086C24.8936 58.4086 25.1648 58.2963 25.4477 58.2963C25.7305 58.2963 26.0018 58.4086 26.2018 58.6086ZM21.0963 58.6088L25.1591 62.6716C25.2598 62.7703 25.3398 62.8879 25.3947 63.0177C25.4496 63.1476 25.4783 63.287 25.4789 63.4279C25.4796 63.5688 25.4524 63.7085 25.3988 63.8389C25.3451 63.9692 25.2662 64.0876 25.1665 64.1873C25.0669 64.2869 24.9484 64.3658 24.8181 64.4194C24.6877 64.473 24.548 64.5002 24.4071 64.4995C24.2662 64.4988 24.1268 64.4701 23.997 64.4152C23.8672 64.3603 23.7496 64.2802 23.6509 64.1795L19.5881 60.1168C19.3881 59.9168 19.2757 59.6456 19.2757 59.3627C19.2758 59.0799 19.3881 58.8087 19.5881 58.6087C19.7881 58.4087 20.0594 58.2964 20.3422 58.2964C20.625 58.2964 20.8963 58.4088 21.0963 58.6088ZM28.123 55.8635C28.2236 55.9622 28.3037 56.0798 28.3586 56.2097C28.4135 56.3395 28.4421 56.4789 28.4428 56.6198C28.4435 56.7607 28.4162 56.9004 28.3626 57.0308C28.309 57.1611 28.2301 57.2795 28.1304 57.3792C28.0307 57.4788 27.9123 57.5577 27.7819 57.6113C27.6516 57.6649 27.5119 57.6921 27.371 57.6914C27.23 57.6907 27.0906 57.6621 26.9608 57.6071C26.831 57.5522 26.7134 57.4721 26.6148 57.3714L22.5518 53.3084C22.3565 53.1075 22.2481 52.8378 22.2501 52.5576C22.2521 52.2774 22.3643 52.0092 22.5624 51.8111C22.7606 51.6129 23.0288 51.5008 23.309 51.4988C23.5892 51.4968 23.8589 51.6052 24.0598 51.8005L28.123 55.8635ZM55.2043 64.3083C55.0044 64.1083 54.8921 63.8371 54.8921 63.5543C54.8921 63.2715 55.0044 63.0003 55.2043 62.8004L59.2672 58.7374C59.4672 58.5374 59.7384 58.425 60.0212 58.425C60.304 58.4249 60.5752 58.5373 60.7753 58.7372C60.9752 58.9372 61.0876 59.2084 61.0876 59.4912C61.0876 59.774 60.9752 60.0453 60.7753 60.2453L56.7124 64.3083C56.5041 64.5165 56.2313 64.6207 55.9583 64.6207C55.6853 64.6207 55.4126 64.5165 55.2043 64.3083ZM15.9906 58.7374L20.0536 62.8004C20.1543 62.899 20.2343 63.0167 20.2892 63.1465C20.3441 63.2763 20.3728 63.4157 20.3734 63.5566C20.3741 63.6976 20.3469 63.8372 20.2933 63.9676C20.2396 64.0979 20.1607 64.2163 20.061 64.316C19.9614 64.4156 19.8429 64.4945 19.7126 64.5481C19.5822 64.6017 19.4426 64.629 19.3016 64.6282C19.1607 64.6275 19.0213 64.5989 18.8915 64.5439C18.7617 64.489 18.6441 64.4089 18.5454 64.3083L14.4824 60.2453C14.2825 60.0453 14.1702 59.7741 14.1702 59.4913C14.1702 59.2085 14.2825 58.9373 14.4824 58.7374C14.5814 58.6383 14.699 58.5597 14.8284 58.5061C14.9578 58.4524 15.0964 58.4248 15.2365 58.4248C15.3766 58.4248 15.5153 58.4524 15.6447 58.5061C15.774 58.5597 15.8916 58.6383 15.9906 58.7374ZM50.0987 64.1795C49.8987 63.9795 49.7864 63.7083 49.7864 63.4255C49.7864 63.1427 49.8987 62.8715 50.0987 62.6715L54.1617 58.6086C54.2607 58.5096 54.3783 58.4311 54.5077 58.3775C54.6371 58.3239 54.7757 58.2963 54.9158 58.2963C55.0558 58.2963 55.1945 58.3239 55.3239 58.3775C55.4533 58.4311 55.5708 58.5097 55.6698 58.6087C55.7689 58.7077 55.8474 58.8253 55.901 58.9547C55.9546 59.0841 55.9821 59.2227 55.9821 59.3628C55.9821 59.5028 55.9545 59.6415 55.9009 59.7709C55.8473 59.9002 55.7688 60.0178 55.6698 60.1168L51.6068 64.1795C51.3985 64.3878 51.1255 64.492 50.8526 64.492C50.5798 64.492 50.3068 64.3878 50.0987 64.1795ZM47.889 57.684C47.6781 57.684 47.4719 57.6215 47.2966 57.5043C47.1212 57.3871 46.9845 57.2206 46.9038 57.0258C46.8231 56.8309 46.802 56.6165 46.8431 56.4097C46.8842 56.2028 46.9858 56.0128 47.1349 55.8637L51.1977 51.8007C51.3986 51.6054 51.6683 51.497 51.9485 51.4989C52.2288 51.5009 52.4969 51.6131 52.6951 51.8112C52.8932 52.0093 53.0054 52.2775 53.0074 52.5577C53.0094 52.8379 52.9011 53.1076 52.7058 53.3086L48.6429 57.3716C48.544 57.4708 48.4265 57.5495 48.2971 57.6031C48.1677 57.6567 48.029 57.6842 47.889 57.684ZM44.993 62.6716L49.0559 58.6088C49.2566 58.4121 49.5267 58.3025 49.8077 58.3039C50.0887 58.3054 50.3578 58.4176 50.5565 58.6163C50.7551 58.815 50.8674 59.084 50.8688 59.365C50.8702 59.646 50.7606 59.9162 50.564 60.1168L46.5011 64.1795C46.4022 64.2787 46.2846 64.3574 46.1552 64.411C46.0258 64.4646 45.8871 64.4921 45.747 64.492C45.5361 64.4919 45.33 64.4294 45.1547 64.3122C44.9793 64.195 44.8427 64.0285 44.762 63.8336C44.6813 63.6388 44.6602 63.4244 44.7013 63.2176C44.7424 63.0108 44.844 62.8208 44.993 62.6716Z" fill="black"/>
</svg>
