<svg width="19" height="30" viewBox="0 0 19 30" fill="none" xmlns="http://www.w3.org/2000/svg">
<path d="M5.03625 0.356413C5.14688 0.266413 5.26125 0.181413 5.38 0.0995382C5.51659 0.0115722 5.68207 -0.0197468 5.84136 0.0122185C6.00066 0.0441839 6.14124 0.136921 6.23332 0.270776C6.3254 0.40463 6.36174 0.56908 6.33464 0.729271C6.30753 0.889462 6.21912 1.0328 6.08812 1.12891C5.99604 1.19266 5.90646 1.25954 5.81938 1.32954C5.68968 1.42605 5.52764 1.46855 5.36728 1.44812C5.20691 1.42769 5.0607 1.34592 4.95935 1.21997C4.858 1.09403 4.80938 0.933715 4.82372 0.772692C4.83806 0.611669 4.91424 0.462465 5.03625 0.356413ZM3.14438 3.26079C3.2802 2.71184 3.5055 2.18901 3.81125 1.71329C3.90168 1.57625 4.0424 1.48029 4.203 1.44616C4.36359 1.41203 4.53117 1.44247 4.66951 1.53089C4.80786 1.61931 4.90585 1.75862 4.94231 1.91871C4.97877 2.0788 4.95078 2.2468 4.86438 2.38641C4.63273 2.74721 4.46172 3.14349 4.35812 3.55954C4.31768 3.7196 4.21555 3.85716 4.07403 3.94218C3.93251 4.0272 3.7631 4.05277 3.60279 4.01331C3.44249 3.97385 3.3043 3.87257 3.21841 3.73158C3.13252 3.59058 3.10591 3.42134 3.14438 3.26079ZM2.5 29.0352H0.625C0.45924 29.0352 0.300268 28.9693 0.183058 28.8521C0.0658476 28.7349 0 28.5759 0 28.4102C0 28.2444 0.0658476 28.0854 0.183058 27.9682C0.300268 27.851 0.45924 27.7852 0.625 27.7852H2.5C2.66576 27.7852 2.82473 27.851 2.94194 27.9682C3.05915 28.0854 3.125 28.2444 3.125 28.4102C3.125 28.5759 3.05915 28.7349 2.94194 28.8521C2.82473 28.9693 2.66576 29.0352 2.5 29.0352ZM17.5 29.0352H15.625C15.4592 29.0352 15.3003 28.9693 15.1831 28.8521C15.0658 28.7349 15 28.5759 15 28.4102C15 28.2444 15.0658 28.0854 15.1831 27.9682C15.3003 27.851 15.4592 27.7852 15.625 27.7852H17.5C17.6658 27.7852 17.8247 27.851 17.9419 27.9682C18.0592 28.0854 18.125 28.2444 18.125 28.4102C18.125 28.5759 18.0592 28.7349 17.9419 28.8521C17.8247 28.9693 17.6658 29.0352 17.5 29.0352Z" fill="black"/>
</svg>
