<svg width="40" height="48" viewBox="0 0 40 48" fill="none" xmlns="http://www.w3.org/2000/svg">
<g clip-path="url(#clip0_14_72)">
<path fill-rule="evenodd" clip-rule="evenodd" d="M18.3353 0.592406C18.1272 0.641624 17.5849 0.861936 16.9882 1.13971C16.439 1.39553 15.885 1.65171 15.7573 1.70919C15.4183 1.86178 14.6028 2.23396 14.2012 2.41941C13.7884 2.61009 12.3638 3.26399 11.9019 3.47476C11.7231 3.5564 11.2214 3.78633 10.7871 3.98571C10.3528 4.18511 9.86161 4.41062 9.69555 4.48668C9.52949 4.56286 9.23685 4.69838 9.04524 4.78779C8.85364 4.8771 8.59235 4.99729 8.46461 5.05477C8.33688 5.11223 7.93973 5.29411 7.58206 5.459C7.22439 5.62378 6.79031 5.82375 6.61752 5.9033C6.23976 6.07726 6.24394 6.08504 6.86208 6.35549C7.10478 6.46163 7.44968 6.61782 7.62851 6.70259C7.80734 6.78725 8.06863 6.90848 8.20914 6.97189C8.34965 7.03529 8.61093 7.15409 8.78977 7.23596C10.645 8.08496 11.3805 8.42195 11.5768 8.513C11.7045 8.57235 11.9449 8.68393 12.111 8.76104C12.8744 9.11545 13.1361 9.2346 13.1513 9.2346C13.1604 9.2346 13.4055 9.34712 13.6961 9.48474C14.1529 9.70107 15.4542 10.3002 16.1057 10.5942C16.2207 10.646 16.5309 10.7899 16.7952 10.9138C17.0594 11.0377 17.2822 11.1391 17.2899 11.1391C17.3051 11.1391 17.6996 11.3198 18.8307 11.8448C19.6824 12.2399 19.8449 12.3792 19.8449 12.7129C19.8449 13.0252 19.6891 13.2138 19.2571 13.4242C17.8081 14.1301 15.5272 15.1385 15.4329 15.1149C15.3743 15.1002 15.1202 14.9921 14.8684 14.8747C14.6164 14.7574 14.3475 14.6334 14.2709 14.5993C14.0623 14.5062 11.3973 13.2875 10.9962 13.1017C10.8045 13.013 10.5642 12.9023 10.462 12.856C10.3598 12.8095 10.109 12.6944 9.90457 12.6002C9.50917 12.4177 9.12189 12.2407 8.74332 12.0696C8.61558 12.0117 8.34384 11.8861 8.13946 11.7903C7.59681 11.5357 5.746 10.6906 5.5091 10.5891C5.31018 10.5037 4.44144 10.1073 3.84281 9.82847C3.22479 9.54059 2.27929 9.10419 2.05447 9.00305C1.92674 8.94559 1.68636 8.83756 1.5203 8.76301C1.35424 8.68857 1.18202 8.60741 1.13766 8.58279C1.0933 8.55806 1.03582 8.53784 1.00992 8.53784C0.978567 8.53784 0.962892 9.78689 0.962892 12.2927V16.0475L1.55513 16.3158C2.57495 16.7781 2.96653 16.957 3.54088 17.2229C3.96521 17.4194 4.3252 17.5846 5.51502 18.1294C6.95951 18.7906 7.18886 18.9026 7.16691 18.937C7.14461 18.972 6.94093 19.0766 6.53693 19.2604C5.80626 19.5931 5.26013 19.845 4.56279 20.1713C4.17458 20.3529 3.68534 20.5788 2.51433 21.1169C1.89863 21.3998 1.29768 21.6785 1.17889 21.7362L0.962892 21.8411V25.5994C0.962892 28.5875 0.974738 29.3527 1.02096 29.3339C1.10294 29.3007 2.16793 28.8125 2.61188 28.6048C3.00067 28.4229 3.23106 28.3174 3.65701 28.1264C3.79752 28.0635 4.04836 27.9486 4.21442 27.8714C4.57417 27.7038 7.91929 26.1715 8.18591 26.052C8.44348 25.9366 11.0809 24.7267 11.5071 24.5284C11.6987 24.4392 11.96 24.3186 12.0877 24.2606C12.2155 24.2024 13.0314 23.8281 13.9009 23.4288L15.4819 22.7025L16.1538 23.0085C16.5233 23.1768 16.9302 23.3634 17.0579 23.4232C17.4025 23.5847 17.9019 23.8129 18.6977 24.1724C19.6638 24.6088 19.941 24.8693 19.8458 25.2508C19.7575 25.6045 19.6631 25.6634 17.894 26.467C17.4853 26.6528 17.015 26.8675 16.8489 26.9444C16.6828 27.0211 16.4111 27.1456 16.245 27.2207C16.079 27.296 15.8177 27.4179 15.6644 27.4918C15.5111 27.5655 15.2603 27.6808 15.107 27.7479C14.8307 27.8688 13.5745 28.4403 12.9935 28.7093C12.8275 28.7862 12.5871 28.8967 12.4593 28.9548C12.1961 29.0746 11.6748 29.3147 11.2284 29.5218C11.0623 29.5989 10.4562 29.8761 9.88135 30.1377C9.30653 30.3994 8.7108 30.6716 8.55752 30.7426C8.40423 30.8135 8.14295 30.9344 7.97689 31.0113C7.81083 31.0881 7.52864 31.2172 7.34981 31.298C6.17671 31.8287 6.21747 31.7942 6.57455 31.9529C6.91074 32.1022 7.17516 32.2233 7.60529 32.4247C8.18696 32.6971 8.44929 32.8176 9.60265 33.3426C10.1775 33.6043 10.815 33.8967 11.0194 33.9926C11.2238 34.0884 11.4955 34.2131 11.6232 34.2697C11.751 34.3262 11.9809 34.4314 12.1342 34.5036C12.2875 34.5757 12.5174 34.6809 12.6451 34.7374C12.7729 34.794 13.0446 34.9186 13.249 35.0144C13.4534 35.1101 13.9968 35.3608 14.4567 35.5716C15.4199 36.0131 15.5366 36.0667 16.7792 36.64C16.9581 36.7226 17.2193 36.842 17.3598 36.9055C17.5004 36.9689 17.7198 37.0682 17.8476 37.1263C18.4711 37.4093 19.3565 37.4129 19.9663 37.1349C20.5569 36.8656 22.3802 36.0328 22.6784 35.896C23.0713 35.7159 23.3969 35.5679 23.6771 35.4419C23.792 35.3902 24.0742 35.2606 24.3042 35.1539C24.5341 35.0472 24.8163 34.9174 24.9312 34.8657C25.0462 34.814 25.3075 34.6932 25.5119 34.5974C25.8734 34.4281 26.5255 34.1305 27.0912 33.8769C27.3597 33.7564 27.5819 33.654 28.2292 33.3522C28.3953 33.2748 28.6566 33.1554 28.8098 33.0867C28.9631 33.0182 29.7261 32.6695 30.5053 32.3119C31.8475 31.696 32.0405 31.608 32.5143 31.3959C32.6228 31.3473 32.9102 31.2146 33.1529 31.1009C33.3956 30.9873 34.0645 30.68 34.6394 30.4182C36.1968 29.7085 36.6076 29.5191 37.1998 29.2374C37.3946 29.1447 37.5698 29.0689 37.5891 29.0689C37.7313 29.0689 38.5577 28.5419 38.8065 28.2926C39.3988 27.699 39.4458 26.844 38.9245 26.1491C38.7099 25.863 38.1588 25.5667 35.9382 24.5435C34.7256 23.9848 33.5816 23.4576 33.3958 23.3719C33.21 23.2863 33.0506 23.2162 33.0416 23.2162C33.0325 23.2162 32.7874 23.1043 32.4968 22.9678C31.8454 22.6615 31.6708 22.581 30.6214 22.1017C30.1615 21.8917 29.5691 21.6177 29.3048 21.4926C29.0406 21.3676 28.8141 21.2652 28.8018 21.2652C28.7895 21.2652 28.619 21.1896 28.423 21.0973C27.8314 20.8186 27.5211 20.675 27.277 20.5667C27.1492 20.5101 26.6162 20.2664 26.0925 20.0253C25.5688 19.7841 25.0462 19.5436 24.9312 19.4907C24.8163 19.4379 24.5968 19.3365 24.4435 19.2656C24.2902 19.1946 24.076 19.0994 23.9674 19.0539C23.7116 18.9469 23.7176 18.923 24.0371 18.7768C24.184 18.7097 24.5341 18.5496 24.8151 18.4212C25.0961 18.2928 25.4619 18.1253 25.628 18.0489C25.7941 17.9726 26.0449 17.858 26.1854 17.7944C26.4908 17.6561 26.9414 17.4484 27.3234 17.2699C27.4767 17.1983 27.7275 17.0836 27.8808 17.0148C28.4293 16.7691 29.7939 16.1419 30.2658 15.9186C30.53 15.7935 30.7574 15.6912 30.7711 15.6912C30.7847 15.6912 30.9447 15.6199 31.1267 15.5327C31.3086 15.4455 31.5725 15.3224 31.713 15.2593C31.8535 15.1962 32.1043 15.082 32.2704 15.0057C32.6624 14.8254 33.5182 14.4345 33.8729 14.2737C34.0262 14.2041 34.3084 14.0742 34.5 13.985C34.6916 13.8957 34.8902 13.8065 34.9413 13.7866C35.0845 13.7312 37.3448 12.6908 37.8684 12.4395C38.9163 11.9362 39.2617 11.5098 39.2605 10.721C39.2587 9.77077 38.8644 9.39185 36.9851 8.53531C36.8063 8.45379 36.545 8.33476 36.4045 8.27066C36.264 8.20656 35.7414 7.96652 35.2432 7.73718C34.745 7.50783 33.888 7.11555 33.3387 6.86542C32.7895 6.6154 32.2042 6.34854 32.0381 6.27248C31.8721 6.19642 31.4958 6.02455 31.202 5.89066C30.9082 5.75665 30.4933 5.56597 30.28 5.46668C30.0667 5.36752 29.8842 5.28634 29.8744 5.28634C29.8646 5.28634 29.6525 5.18996 29.4029 5.07209C28.7399 4.7589 28.4208 4.61072 28.1595 4.49483C28.0318 4.43828 27.5301 4.20939 27.0447 3.98632C26.2107 3.60298 24.9669 3.0335 24.3506 2.75271C24.1973 2.68292 23.8766 2.53463 23.638 2.42315C23.3993 2.31178 23.1974 2.22063 23.1894 2.22063C23.1814 2.22063 22.9794 2.12946 22.7408 2.01799C22.5021 1.90651 22.2023 1.76785 22.0745 1.70979C21.9468 1.65172 21.4347 1.41681 20.9365 1.18769C19.3807 0.472 19.1082 0.409624 18.3353 0.592406ZM0.962894 44.582V47.5162L4.017 47.4978C6.27936 47.4842 7.1193 47.4645 7.25691 47.4216C7.3591 47.3899 7.55001 47.3336 7.68112 47.2967C8.65204 47.0237 9.07509 45.9704 8.5228 45.2013C8.38519 45.0097 7.86274 44.6306 7.73419 44.6291C7.51587 44.6267 7.56267 44.536 7.84985 44.4059C9.09727 43.8402 9.06278 42.3833 7.79109 41.9246C7.12998 41.6861 7.17434 41.6891 3.97055 41.6679L0.962891 41.648L0.962894 44.582ZM12.0552 41.7382C12.0166 41.7829 11.7799 42.1644 11.5292 42.5859C11.2785 43.0075 10.9835 43.4987 10.8738 43.6775C10.7639 43.8563 10.5888 44.149 10.4844 44.3278C10.3801 44.5066 10.2592 44.7099 10.2158 44.7794C9.81946 45.4143 8.62719 47.4296 8.62719 47.4647C8.62719 47.4924 9.03688 47.5097 9.6916 47.5097H10.756L10.9852 47.1032C11.1112 46.8797 11.2931 46.5609 11.3894 46.3948C11.4857 46.2288 11.6221 45.9884 11.6924 45.8607C11.7628 45.7329 12.0239 45.2731 12.2725 44.8388C12.7332 44.0344 12.9307 43.6837 13.1096 43.3523C13.1648 43.2502 13.2397 43.1613 13.2759 43.1549C13.3305 43.1453 14.4799 45.1048 14.4799 45.2076C14.4799 45.2219 14.1591 45.2336 13.7669 45.2336C13.0496 45.2336 12.8171 45.2713 12.6516 45.4144C12.5634 45.4907 12.2503 45.9407 12.2503 45.9912C12.2503 46.0065 12.1981 46.0962 12.1342 46.1902C12.0703 46.2844 12.0181 46.3794 12.0181 46.4013C12.0181 46.4232 12.7277 46.4413 13.5952 46.4413H15.1723L15.306 46.6387C15.3797 46.7473 15.5209 46.9877 15.6199 47.1729L15.8 47.5096H16.8819C17.4769 47.5096 17.9637 47.4967 17.9637 47.481C17.9637 47.4542 17.3826 46.4776 17.1515 46.1161C17.067 45.9839 15.5057 43.3927 15.3387 43.1074C15.3129 43.0633 15.2005 42.8704 15.0891 42.6788C14.9778 42.4872 14.7936 42.1789 14.68 41.9937L14.4733 41.6569H13.2994C12.2389 41.6569 12.1186 41.6647 12.0552 41.7382ZM22.1907 43.6667C22.1907 46.526 22.4249 46.2729 19.7603 46.2918C18.7429 46.2992 17.9174 46.32 17.9257 46.3383C18.124 46.7715 18.5223 47.326 18.7069 47.4257C18.9402 47.5517 22.6433 47.5293 22.9743 47.4C23.3021 47.2716 23.4119 47.2027 23.5876 47.0142C24.0216 46.5483 24.0255 46.5212 24.0255 43.8866V41.6802L23.1081 41.6677L22.1907 41.655V43.6667ZM27.3658 41.6925C27.3246 41.7204 26.7586 42.6284 26.4181 43.213C26.353 43.3247 26.0625 43.811 25.7661 44.3046C25.743 44.3429 25.4175 44.8864 25.0426 45.5123C24.6678 46.1382 24.2489 46.8348 24.112 47.0605C23.9749 47.2861 23.8629 47.4798 23.8629 47.4911C23.8629 47.5022 24.3471 47.5057 24.939 47.4988L26.015 47.4864L26.1848 47.2077C26.2782 47.0544 26.4291 46.7931 26.5202 46.6271C26.6112 46.461 26.9546 45.8542 27.2833 45.2788C27.6119 44.7033 28.0167 43.9875 28.1828 43.6882C28.5214 43.0777 28.5544 43.0605 28.739 43.3988C28.8087 43.5265 28.9452 43.7669 29.0424 43.9329C29.1396 44.099 29.2754 44.3394 29.3441 44.4671C29.4128 44.5949 29.5243 44.7934 29.5917 44.9084C29.7868 45.2405 29.7988 45.2336 29.0305 45.2338C28.2373 45.2341 28.0693 45.2694 27.8725 45.477C27.7194 45.6383 27.3002 46.3084 27.3002 46.3916C27.3002 46.4258 27.7791 46.4415 28.8447 46.4419C29.6941 46.4422 30.4108 46.4579 30.4371 46.4768C30.4905 46.5148 30.6933 46.8361 30.9203 47.2425L31.0695 47.5096H32.1344C33.3072 47.5096 33.2841 47.5164 33.0866 47.2259C33.0246 47.1347 32.9332 46.9888 32.8835 46.9016C32.8338 46.8145 32.3598 46.022 31.8302 45.1406C31.3005 44.2592 30.8271 43.4687 30.7781 43.3838C30.729 43.2989 30.6519 43.1735 30.6069 43.1051C30.5617 43.0367 30.5006 42.9389 30.4713 42.8878C30.1908 42.4011 29.8269 41.8039 29.7707 41.7382C29.6974 41.6524 27.4872 41.6105 27.3658 41.6925ZM37.4574 41.6881C37.4403 41.7051 37.4264 42.63 37.4262 43.7436C37.4262 46.5438 37.6838 46.2691 35.027 46.3022L33.1616 46.3254L33.4388 46.7666C33.9458 47.5736 33.7532 47.521 36.1257 47.4996C38.3494 47.4794 38.5215 47.4442 38.9546 46.9208C39.2709 46.5385 39.2844 46.4155 39.2844 43.9051V41.6571H38.3864C37.8924 41.6571 37.4743 41.6711 37.4574 41.6881ZM6.23139 42.9093C6.75175 43.0299 6.86776 43.4736 6.44401 43.7218C6.29351 43.81 6.18459 43.8188 4.98083 43.8403C3.46202 43.8674 3.55411 43.8387 3.22466 44.3922C2.80068 45.1051 2.82426 45.1309 2.8224 43.9526C2.82167 43.3883 2.83483 42.9128 2.85189 42.8958C2.89904 42.8486 6.02341 42.8611 6.23139 42.9093ZM6.45737 45.1999C6.75082 45.4237 6.78461 45.8203 6.53087 46.0599C6.30176 46.2761 6.17785 46.2948 4.94448 46.2987C3.50499 46.3029 3.57571 46.2787 3.19295 46.9016C3.03433 47.1596 2.8858 47.3824 2.86281 47.3965C2.8383 47.4118 2.82089 46.9282 2.82089 46.2336V45.0447L4.55488 45.058L6.28875 45.0712L6.45737 45.1999Z" fill="black" fill-opacity="0.2"/>
</g>
<defs>
<clipPath id="clip0_14_72">
<rect width="40" height="48" fill="white"/>
</clipPath>
</defs>
</svg>
