<svg width="22" height="28" viewBox="0 0 22 28" fill="none" xmlns="http://www.w3.org/2000/svg">
<path fill-rule="evenodd" clip-rule="evenodd" d="M12.8247 11.0103L11.9175 10.8041C9.69072 10.3505 7.91752 9.7732 7.91752 8.16495C7.91752 6.43299 9.60824 5.73196 11.0928 5.73196C12.1056 5.74704 13.1045 5.97089 14.0269 6.38952C14.9493 6.80815 15.7754 7.41255 16.4536 8.16495L20.5361 4.12371C18.6804 2.02062 15.6701 0 10.9691 0C5.4433 0 1.23711 3.09278 1.23711 8.24742C1.23711 12.9485 4.61855 15.2577 8.74226 16.1237L9.64948 16.3299C13.0722 17.0309 14.3505 17.567 14.3505 19.2165C14.3505 20.7835 12.9484 21.8144 10.8041 21.8144C8.24742 21.8144 5.93815 20.701 4.16495 18.433L0 22.5567C2.30928 25.3196 5.23711 27.4639 10.8866 27.4639C15.7938 27.4639 21.0309 24.6598 21.0309 18.9278C21.1134 12.9485 16.5773 11.7938 12.8247 11.0103Z" fill="black" fill-opacity="0.2"/>
</svg>
