<svg width="40" height="40" viewBox="0 0 40 40" fill="none" xmlns="http://www.w3.org/2000/svg">
<path d="M19.8759 0C15.9448 0 12.1019 1.16572 8.83326 3.34976C5.56462 5.53379 3.01702 8.63805 1.51264 12.27C0.00824586 15.9019 -0.385371 19.8983 0.38156 23.754C1.14849 27.6096 3.04152 31.1512 5.82127 33.931C8.60102 36.7107 12.1426 38.6037 15.9983 39.3707C19.8539 40.1376 23.8503 39.744 27.4823 38.2396C31.1142 36.7352 34.2184 34.1876 36.4025 30.919C38.5865 27.6503 39.7522 23.8074 39.7522 19.8763C39.7522 14.6048 37.6581 9.54916 33.9306 5.82163C30.2031 2.0941 25.1475 0 19.8759 0ZM19.8759 37.8969C16.3118 37.8969 12.8277 36.84 9.86421 34.8599C6.90074 32.8798 4.59099 30.0653 3.22705 26.7725C1.86311 23.4796 1.50624 19.8563 2.20157 16.3606C2.8969 12.865 4.6132 9.65402 7.13343 7.13379C9.65366 4.61356 12.8646 2.89726 16.3603 2.20193C19.8559 1.5066 23.4793 1.86347 26.7721 3.22741C30.065 4.59135 32.8794 6.90109 34.8595 9.86457C36.8397 12.828 37.8966 16.3121 37.8966 19.8763C37.8955 24.6553 35.9965 29.2383 32.6172 32.6176C29.2379 35.9969 24.655 37.8958 19.8759 37.8969Z" fill="black" fill-opacity="0.2"/>
</svg>
