<svg width="79" height="27" viewBox="0 0 79 27" fill="none" xmlns="http://www.w3.org/2000/svg">
<path d="M5.80591 21.2566H2.60452L1.35652 25.8707H16.8751L18.0689 21.2566H14.3249L18.0689 5.89468H20.6191L20.4021 8.44595H25.7739L27.9444 0.357852H2.11617L0 8.44595H5.58887L6.72835 5.8404H9.49565L5.80591 21.2566ZM46.2845 0.357852H58.2761L42.2692 25.8707H32.2309L30.8201 4.97187H28.7582L29.952 0.357852H43.2459L42.0521 4.97187H39.7732L39.7189 18.0539L47.3697 4.97187H44.8195L46.2845 0.357852ZM77.0505 7.90314C77.0505 5.35185 77.8643 3.07199 78.8953 0.737841C74.3917 -0.0764031 69.5081 -0.402103 65.0588 0.737841C62.5628 1.38923 59.9582 2.96342 58.5475 5.18901C56.9197 7.68601 57.2995 10.8887 59.3071 13.0057C60.3381 14.0371 61.5861 14.7427 62.8883 15.3398C63.9193 15.8284 65.7099 16.5884 65.9812 17.7826C66.7409 20.8224 61.8573 21.0938 59.9582 20.4967V18.1083H54.8577L52.9044 25.2193C57.4622 26.3592 62.2372 26.7392 66.8493 25.7078C69.6167 25.0564 72.1127 23.6451 73.9576 21.4195C75.4769 19.5196 76.345 15.9913 74.7172 13.9285C73.7948 12.7886 72.7638 11.9201 71.5158 11.2144C70.3221 10.5087 69.0198 10.0744 67.9346 9.26017C66.6323 8.28306 66.6323 6.76321 68.0431 5.89468C69.1283 5.18901 70.9189 5.51471 72.1127 5.73183L72.3297 7.84885H77.0505V7.90314Z" fill="black" fill-opacity="0.2"/>
</svg>
