<svg width="46" height="40" viewBox="0 0 46 40" fill="none" xmlns="http://www.w3.org/2000/svg">
<path d="M-0.00012207 28.6222H10.9963V31.9597H7.81846V40.0002H3.27864V31.9597H-0.00012207" fill="black" fill-opacity="0.2"/>
<path d="M16.5452 33.224L14.2248 40.0002H9.8363L14.1239 28.6222H18.9159L23.3044 40.0002H18.8655" fill="black" fill-opacity="0.2"/>
<path d="M22.2451 28.6222H33.2416V31.9597H30.1141V40.0002H25.5239V31.9597H22.2451" fill="black" fill-opacity="0.2"/>
<path d="M38.7902 33.224L36.4699 40.0002H32.0814L36.4194 28.6222H41.161L45.5999 40.0002H41.161" fill="black" fill-opacity="0.2"/>
<path d="M38.9416 7.68647C38.538 6.87737 37.9832 6.11884 37.3274 5.3603C35.8141 3.7421 33.6956 2.37674 31.1734 1.41593C28.6513 0.505689 25.7256 0 22.8 0C19.8743 0 16.9487 0.505689 14.4265 1.4665C11.9044 2.42731 9.78582 3.7421 8.27255 5.41087C7.61679 6.11884 7.06193 6.92794 6.65839 7.73704C9.93715 6.92794 15.5363 5.91656 20.7318 5.76485C21.2363 5.76485 21.5894 5.91656 21.7911 6.21997C22.0938 6.57396 22.0433 7.83818 22.0433 8.39444L21.892 22.9077C22.1947 22.9077 22.4973 22.9077 22.8 22.9077C23.1026 22.9077 23.4053 22.9077 23.7079 22.9077L23.5566 8.39444C23.5566 7.83818 23.5062 6.57396 23.8088 6.21997C24.061 5.91656 24.3637 5.76485 24.8681 5.76485C30.0637 5.81542 35.6628 6.87737 38.9416 7.68647Z" fill="black" fill-opacity="0.2"/>
<path d="M39.6477 9.55738C34.8557 8.44486 31.6274 8.29316 28.5 8.09088C25.7256 7.93917 25.7256 8.89998 25.9778 10.8216C25.9778 10.9227 26.0283 11.0744 26.0283 11.2262C26.9362 16.7382 28.0964 21.4411 28.2982 22.2502C35.007 20.7331 39.8495 16.4348 39.8495 11.4284C39.9 10.8216 39.7991 10.1642 39.6477 9.55738Z" fill="black" fill-opacity="0.2"/>
<path d="M19.622 10.8218C19.8743 8.95077 19.8743 7.93939 17.0999 8.0911C13.922 8.2428 10.7442 8.44508 5.95214 9.5576C5.80081 10.1644 5.75037 10.7713 5.75037 11.4286C5.75037 13.6031 6.60789 15.6764 8.27249 17.4969C9.78576 19.1151 11.9043 20.4805 14.4265 21.4413C15.3344 21.7953 16.2928 22.0481 17.3017 22.301C17.5035 21.5424 18.6636 16.7384 19.622 11.1252C19.622 11.0241 19.622 10.923 19.622 10.8218Z" fill="black" fill-opacity="0.2"/>
</svg>
