<svg width="40" height="40" viewBox="0 0 40 40" fill="none" xmlns="http://www.w3.org/2000/svg">
<path fill-rule="evenodd" clip-rule="evenodd" d="M17.0475 37.2881L25.4797 22.4961H19.736L22.5467 17.5039H35.9893L33.1174 22.4961H28.2904L19.736 37.5347C29.3291 37.473 37.1502 29.584 37.1502 19.9692C37.1502 10.3544 29.3291 2.52696 19.7971 2.52696C19.125 2.52696 18.3918 2.5886 17.7197 2.65023L9.16534 17.5039H19.736L16.8642 22.4961H3.54393L14.4812 3.38983C7.51558 5.60863 2.44409 12.265 2.44409 19.9692C2.44409 28.6595 8.79873 35.9322 17.0475 37.2881ZM19.7971 0C30.6733 0 39.6554 8.99846 39.6554 19.9692C39.6554 31.0015 30.7345 40 19.7971 40C8.92094 40 0 31.0015 0 19.9692C0 8.99846 8.92094 0 19.7971 0Z" fill="black" fill-opacity="0.2"/>
</svg>
