<svg width="33" height="23" viewBox="0 0 33 23" fill="none" xmlns="http://www.w3.org/2000/svg">
<path d="M32.2832 7.68647C31.8796 6.87737 31.3248 6.11884 30.669 5.3603C29.1558 3.7421 27.0372 2.37674 24.515 1.41593C21.9929 0.505689 19.0673 0 16.1416 0C13.2159 0 10.2903 0.505689 7.76814 1.4665C5.24602 2.42731 3.12743 3.7421 1.61416 5.41087C0.958407 6.11884 0.40354 6.92794 0 7.73704C3.27876 6.92794 8.87788 5.91656 14.0735 5.76485C14.5779 5.76485 14.931 5.91656 15.1327 6.21997C15.4354 6.57396 15.385 7.83818 15.385 8.39444L15.2336 22.9077C15.5363 22.9077 15.8389 22.9077 16.1416 22.9077C16.4442 22.9077 16.7469 22.9077 17.0496 22.9077L16.8982 8.39444C16.8982 7.83818 16.8478 6.57396 17.1504 6.21997C17.4027 5.91656 17.7053 5.76485 18.2097 5.76485C23.4053 5.81542 29.0044 6.87737 32.2832 7.68647Z" fill="black" fill-opacity="0.2"/>
</svg>
