<svg width="165" height="14" viewBox="0 0 165 14" fill="none" xmlns="http://www.w3.org/2000/svg">
<path fill-rule="evenodd" clip-rule="evenodd" d="M153.978 6.90293C154.467 4.56086 156.116 2.15716 158.866 2.15716C161.616 2.15716 162.227 4.56086 161.677 6.90293C161.188 9.30663 159.599 11.7103 156.788 11.7103C153.978 11.7103 153.428 9.30663 153.978 6.90293ZM151.106 6.90293C150.251 10.9707 151.961 13.8059 156.361 13.8059C160.699 13.8059 163.693 10.9091 164.61 6.90293C165.465 2.89676 163.632 0.0616323 159.355 0.0616323C154.894 0.0616323 151.961 2.7735 151.106 6.90293ZM139.191 13.5593H141.941L143.102 8.01233H144.018C145.179 8.01233 145.423 8.38213 145.607 9.36826L146.34 13.4977H149.395L148.295 8.25886C148.173 7.64253 147.868 6.96456 147.134 6.90293V6.84129C148.967 6.59476 150.312 5.30046 150.617 3.75963C151.411 0.0616323 147.868 0.123266 144.935 0.123266H141.941L139.191 13.5593ZM144.385 2.34206H145.301C146.707 2.34206 148.173 2.46533 147.868 4.0678C147.501 5.73189 145.912 5.91679 144.568 5.91679H143.651L144.385 2.34206ZM127.826 13.5593H132.653C134.364 13.5593 137.602 13.0663 138.336 9.67643C138.702 8.01233 137.663 6.84129 135.83 6.65639V6.59476C137.541 6.28659 138.885 5.1772 139.191 3.63636C139.802 0.739599 137.297 0.246533 135.464 0.246533H130.698L127.826 13.5593ZM132.959 2.34206H133.997C135.28 2.34206 136.625 2.46533 136.319 4.00616C136.014 5.3621 134.547 5.60863 133.386 5.60863H132.286L132.959 2.34206ZM131.859 7.64253H133.142C134.547 7.64253 135.891 7.88906 135.525 9.67643C135.219 11.2173 133.57 11.5254 132.286 11.5254H131.003L131.859 7.64253ZM115.544 8.75193C114.75 12.3267 116.522 13.8059 120.066 13.8059C123.61 13.8059 125.993 12.3267 126.787 8.75193L128.62 0.246533H125.81L124.16 7.95069C123.671 10.2311 122.632 11.7103 120.494 11.7103C118.416 11.7103 117.927 10.2311 118.416 7.95069L120.066 0.246533H117.316L115.544 8.75193ZM103.874 6.90293C104.363 4.56086 106.012 2.15716 108.762 2.15716C111.512 2.15716 112.123 4.56086 111.573 6.90293C111.084 9.30663 109.495 11.7103 106.685 11.7103C103.874 11.7103 103.385 9.30663 103.874 6.90293ZM101.002 6.90293C100.147 10.9707 101.858 13.8059 106.257 13.8059C110.595 13.8059 113.589 10.9091 114.506 6.90293C115.361 2.89676 113.528 0.0616323 109.251 0.0616323C104.852 0.0616323 101.919 2.7735 101.002 6.90293ZM93.792 13.5593H96.5416L98.9857 2.34206H102.896L103.324 0.246533H92.6922L92.2645 2.34206H96.175L93.792 13.5593ZM80.4717 6.59476C82.1215 5.73189 83.4657 4.86903 83.8934 3.08166C84.3822 0.924499 82.4881 0.0616323 80.5939 0.0616323C78.6386 0.0616323 76.1945 1.04777 75.7668 3.08166C75.4613 4.6225 76.1334 5.30046 76.9889 6.28659C74.6059 7.21109 73.6283 8.32049 73.3227 9.92296C72.7728 12.4499 74.667 13.8059 77.4166 13.8059C78.7608 13.8059 80.2884 13.3744 81.4493 12.3883L82.1215 13.5593H85.4821L83.5879 10.9091C84.9933 9.61479 85.8487 8.07396 86.3375 6.34823H83.9545C83.7101 7.39599 83.2824 8.50539 82.4881 9.24499L80.4717 6.59476ZM79.2497 5.1772C78.822 4.68413 78.2109 4.00616 78.3331 3.26656C78.5164 2.28043 79.433 1.849 80.2273 1.849C81.0216 1.849 81.6326 2.28043 81.4493 3.20493C81.3271 4.0678 80.044 4.86903 79.2497 5.1772ZM80.4717 11.0324C79.7385 11.5871 78.822 11.8336 77.9054 11.8336C76.6223 11.8336 75.7668 11.0324 76.0112 9.86133C76.2557 8.81356 77.1111 8.19723 78.1498 7.70416L80.4717 11.0324ZM53.5256 13.5593H56.153L58.2916 3.57473H58.3527L61.4689 13.5593H64.8295L67.7013 0.246533H65.0739L62.9354 10.2311H62.8742L59.8191 0.246533H56.4585L53.5256 13.5593ZM43.3215 13.5593H51.4481L51.8758 11.4638H46.4988L47.2932 7.70416H52.1814L52.6091 5.60863H47.7209L48.4541 2.34206H53.8311L54.2588 0.246533H46.1322L43.3215 13.5593ZM43.8103 0.493066C42.8938 0.184899 41.794 0 40.633 0C38.1889 0 35.6226 1.1094 34.9505 4.0678C33.9729 8.50539 40.2664 7.45763 39.7165 9.98459C39.4721 11.2173 37.9445 11.7103 36.9058 11.7103C35.8059 11.7103 34.8283 11.4022 33.9729 10.9091L33.1785 13.3128C34.4617 13.621 35.0727 13.8059 36.6003 13.8059C39.3499 13.8059 41.9773 12.6965 42.6494 9.79969C43.627 5.36209 37.3946 6.28659 37.8834 4.00616C38.1889 2.52696 39.5332 2.15716 40.4497 2.15716C41.4273 2.15716 42.3439 2.34206 43.1382 2.71186L43.8103 0.493066ZM22.2412 13.5593H24.9908L26.1518 8.01233H27.0683C28.2293 8.01233 28.4737 8.38213 28.657 9.36826L29.3902 13.4977H32.4453L31.3455 8.25886C31.2233 7.64253 30.9178 6.96456 30.1845 6.90293V6.84129C31.9565 6.59476 33.3618 5.30046 33.6674 3.75963C34.4617 0.0616323 30.9178 0.123266 27.9848 0.123266H24.9908L22.2412 13.5593ZM27.4349 2.34206H28.3515C29.7568 2.34206 31.2233 2.46533 30.9178 4.0678C30.5511 5.73189 28.9625 5.91679 27.6182 5.91679H26.7017L27.4349 2.34206ZM8.24881 13.5593H11.1206L12.9537 10.4777H18.514L19.0639 13.5593H22.119L19.6138 0.246533H16.4976L8.24881 13.5593ZM18.2085 8.44376H14.1757L17.3531 2.9584H17.4142L18.2085 8.44376ZM0 13.5593H8.0655L8.49322 11.4638H3.17732L5.62141 0.246533H2.87181L0 13.5593Z" fill="black" fill-opacity="0.2"/>
</svg>
