<svg width="119" height="28" viewBox="0 0 119 28" fill="none" xmlns="http://www.w3.org/2000/svg">
<path fill-rule="evenodd" clip-rule="evenodd" d="M16.8247 13.2784C17.9037 12.8609 18.8294 12.1238 19.4779 11.1657C20.1265 10.2077 20.4669 9.07439 20.4536 7.91755C20.4536 3.0928 17.0309 0.70105 12.3299 0.70105H0V26.9361H13.4021C17.5258 26.9361 21.567 24.0495 21.567 19.6371C21.567 14.3918 16.8247 13.3279 16.8247 13.2784ZM6.43299 6.14435H11.2165C11.5228 6.12536 11.8298 6.16697 12.12 6.26679C12.4103 6.3666 12.6779 6.52267 12.9077 6.72606C13.1375 6.92945 13.325 7.17616 13.4594 7.45208C13.5937 7.72799 13.6723 8.0277 13.6907 8.33404C13.6907 8.42751 13.6907 8.52236 13.6907 8.61858C13.6777 9.26354 13.4104 9.87724 12.947 10.326C12.4835 10.7747 11.8615 11.0222 11.2165 11.0145H6.39175L6.43299 6.14435ZM11.2577 21.4433H6.47423V16.2887H11.134C13.4845 16.2887 14.5979 17.3196 14.5979 18.8454C14.5979 20.7505 13.1959 21.4433 11.2577 21.4433Z" fill="black" fill-opacity="0.2"/>
<path fill-rule="evenodd" clip-rule="evenodd" d="M35.7528 0.0411377C28.1652 0.0411377 23.7115 6.10299 23.7115 13.7731C23.7115 21.4432 28.1652 27.5051 35.7528 27.5051C43.3404 27.5051 47.794 21.4844 47.794 13.7731C47.794 6.06176 43.3817 0.0411377 35.7528 0.0411377ZM35.7528 21.237C32.0414 21.237 30.1858 17.8968 30.1858 13.7731C30.1858 9.64939 32.0414 6.35042 35.7528 6.35042C39.4641 6.35042 41.361 9.69062 41.361 13.7731C41.361 17.938 39.4641 21.237 35.7528 21.237Z" fill="black" fill-opacity="0.2"/>
<path fill-rule="evenodd" clip-rule="evenodd" d="M61.7735 11.0103L60.8663 10.8041C58.6394 10.3505 56.8662 9.7732 56.8662 8.16495C56.8662 6.43299 58.557 5.73196 60.0415 5.73196C61.0544 5.74704 62.0532 5.97089 62.9756 6.38952C63.898 6.80815 64.7241 7.41255 65.4023 8.16495L69.4848 4.12371C67.6291 2.02062 64.6188 0 59.9178 0C54.392 0 50.1858 3.09278 50.1858 8.24742C50.1858 12.9485 53.5673 15.2577 57.691 16.1237L58.5982 16.3299C62.0209 17.0309 63.2992 17.567 63.2992 19.2165C63.2992 20.7835 61.8972 21.8144 59.7528 21.8144C57.1961 21.8144 54.8869 20.701 53.1137 18.433L48.9487 22.5567C51.258 25.3196 54.1858 27.4639 59.8353 27.4639C64.7425 27.4639 69.9797 24.6598 69.9797 18.9278C70.0621 12.9485 65.5261 11.7938 61.7735 11.0103Z" fill="black" fill-opacity="0.2"/>
<path fill-rule="evenodd" clip-rule="evenodd" d="M84.66 21.2373C81.7734 21.2373 78.7631 18.8455 78.7631 13.6084C78.7631 8.94862 81.5672 6.35068 84.4951 6.35068C86.8044 6.35068 88.1652 7.42285 89.2373 9.27852L94.5157 5.77336C91.8765 1.77336 88.7425 0.0826416 84.4126 0.0826416C76.4951 0.0826416 72.2064 6.22697 72.2064 13.6496C72.2064 21.4435 76.9487 27.5466 84.3301 27.5466C89.526 27.5466 92.0002 25.7321 94.6806 21.8558L89.3611 18.2765C88.2889 20.0002 87.1343 21.2373 84.66 21.2373Z" fill="black" fill-opacity="0.2"/>
<path fill-rule="evenodd" clip-rule="evenodd" d="M112.124 0.70105V10.3505H104.165V0.70105H97.2784V26.9279H104.165V16.5773H112.124V26.9279H119.01V0.70105H112.124Z" fill="black" fill-opacity="0.2"/>
</svg>
