<svg width="12" height="2" viewBox="0 0 12 2" fill="none" xmlns="http://www.w3.org/2000/svg">
<path d="M5.60073 1.56071C4.28573 1.56071 2.39448 1.44196 0.541983 1.24446C0.380586 1.22283 0.234004 1.13907 0.133436 1.01099C0.0328689 0.882917 -0.0137417 0.720649 0.00352564 0.558727C0.020793 0.396805 0.100575 0.248015 0.225889 0.144028C0.351204 0.040042 0.512155 -0.0109289 0.674484 0.00196322C2.48573 0.195088 4.32698 0.310088 5.60073 0.310713C7.10823 0.310713 9.14136 0.150713 10.5426 0.00196322C10.7046 -0.0101431 10.8649 0.0412962 10.9897 0.145383C11.1144 0.249469 11.1937 0.398023 11.2107 0.559568C11.2278 0.721113 11.1813 0.882956 11.0811 1.0108C10.9809 1.13865 10.8348 1.22246 10.6739 1.24446C9.98011 1.31884 7.56011 1.56009 5.60073 1.56071Z" fill="black"/>
</svg>
