<svg width="131" height="40" viewBox="0 0 131 40" fill="none" xmlns="http://www.w3.org/2000/svg">
<g clip-path="url(#clip0_14_53)">
<path d="M65.1658 0.503C60.3684 0.645652 55.9635 3.31544 53.7783 7.7655C52.3096 10.7563 52.1917 15.4193 53.5158 18.303C55.2937 22.1751 59.1608 25.1766 63.2283 25.8405C73.0053 27.4364 81.0238 17.9817 77.6408 8.853C76.4404 5.61393 73.0942 2.26601 70.0283 1.2405C68.4117 0.699788 66.7649 0.455448 65.1658 0.503ZM65.0658 1.953C65.8066 1.98057 65.9315 2.26599 65.1283 2.7155C63.6141 3.56286 61.5786 5.62475 60.5658 7.353C59.9861 8.34219 59.3061 10.0805 59.0533 11.203L58.5908 13.2405L57.9533 12.2405C57.0546 10.855 56.3148 7.66468 56.6158 6.4655C56.9582 5.10095 60.4811 2.78292 63.1283 2.1905C63.9453 2.00765 64.6213 1.93646 65.0658 1.953ZM71.9908 4.3905C72.548 4.41504 72.9843 4.73629 73.7408 5.5405C74.4207 6.26332 75.4108 7.78961 75.9408 8.9405C76.4881 10.1293 76.8498 11.5656 76.7783 12.2655L76.6533 13.503L75.0908 11.628C73.1636 9.31485 70.6235 7.66609 68.0158 7.0405C65.0471 6.32831 66.0121 5.58116 71.3783 4.453C71.608 4.4047 71.805 4.38232 71.9908 4.3905ZM65.4033 7.603C68.1867 7.50888 71.2533 10.3672 71.2533 13.253C71.2533 15.0676 69.9681 17.1359 68.2158 18.1405C66.311 19.2325 64.6904 19.2793 62.8533 18.303C57.7799 15.607 59.0723 8.72504 64.8533 7.6655C65.0353 7.63213 65.2177 7.60928 65.4033 7.603ZM63.3408 9.4655L63.1908 10.028H64.1033L62.5908 14.9905L62.3547 15.265L61.8929 15.344L61.4653 16.2505L68.6658 16.2655L69.9658 13.128L69.0908 13.1405L68.8033 14.053C68.8033 14.053 68.5009 14.9221 68.2176 15.1094C67.8505 15.3521 66.5945 15.277 66.5945 15.277L65.2501 15.2538L66.7033 10.1155L67.6783 10.103L67.8283 9.478L63.3408 9.4655ZM54.0533 12.9905L56.1158 15.2405C58.2775 17.6058 60.8865 19.198 63.3783 19.6655C64.1911 19.818 64.8533 20.0814 64.8533 20.253C64.8533 20.4246 64.1424 20.8523 63.2658 21.203C60.4146 22.3438 58.7774 22.4212 57.5783 21.478C56.1722 20.372 54.0533 16.0875 54.0533 14.353V12.9905ZM72.2908 13.828C72.8191 13.7671 74.0594 16.3825 74.3283 18.653C74.5406 20.4461 74.4962 20.5461 72.9408 21.778C72.0542 22.4802 70.7252 23.3132 69.9908 23.6155C69.2564 23.9178 67.8728 24.2828 66.9158 24.4405L65.1783 24.728L67.9533 21.9905C70.6451 19.3321 72.0533 16.7825 72.0533 14.578C72.0533 14.077 72.1428 13.845 72.2908 13.828ZM14.2783 31.728L13.2658 31.9655C13.2658 31.9655 12.6572 32.1471 12.4408 32.3905C12.2263 32.6318 11.9908 33.278 11.9908 33.278C11.9908 33.278 11.699 34.0065 11.7283 34.328C11.7559 34.6318 12.0842 35.3778 12.2158 35.653C12.3867 36.0104 12.8954 36.4467 13.2408 36.453C15.2403 36.4896 18.5783 36.528 18.5783 36.528C18.5783 36.528 18.7784 36.669 18.8408 36.753C18.9135 36.8509 18.9902 37.003 19.0033 37.1155C19.0207 37.2649 18.955 37.4968 18.9033 37.5905C18.8305 37.7222 18.5783 37.8655 18.5783 37.8655H11.8283V38.1905C11.8283 38.3665 11.9382 38.7805 12.2283 39.0155C12.2283 39.0155 12.5764 39.4689 12.7908 39.4655C12.7908 39.4655 18.016 39.5049 20.3408 39.453C20.5323 39.4487 20.6694 39.2449 20.8059 39.0708C20.9316 38.9106 21.0378 38.6161 21.1158 38.428C21.2227 37.5727 21.2706 36.6292 21.0658 35.7905C20.9804 35.6335 20.8783 35.2376 20.7283 35.1405C20.5783 35.0434 20.2822 34.8558 20.1283 34.853C20.1283 34.853 16.0407 34.8321 14.3658 34.828C14.1577 34.8275 14.2099 34.3582 14.2181 34.1502C14.2266 33.9319 14.2098 33.4575 14.4283 33.453C16.3475 33.4142 21.0283 33.4405 21.0283 33.4405V32.8405C21.0283 32.8405 20.8723 32.444 20.7158 32.2905C20.549 32.127 20.1561 31.9435 19.9408 31.853C19.6372 31.7254 18.9783 31.728 18.9783 31.728H14.2783ZM22.6283 31.728V39.4655H24.9783V36.5405H29.7908V39.4655H32.2283V31.728C32.2283 31.728 31.6383 31.8123 31.2336 31.8954C30.9088 31.9621 30.4215 32.1226 30.1808 32.3507C29.9157 32.6019 29.7982 33.2956 29.7982 33.2956L29.7908 34.6905H24.9783V33.3905C24.9783 33.3905 25.0101 32.4829 24.7408 32.1905C24.526 31.9574 24.1208 31.916 23.7908 31.878C23.4608 31.84 22.6283 31.728 22.6283 31.728ZM59.4283 31.728V39.4655H67.0283V37.4655H61.6283C61.6534 35.7902 61.6617 34.1155 61.6283 32.4405C61.3501 32.0482 61.1287 32.1143 60.7991 31.9405C60.4753 31.7698 59.4283 31.728 59.4283 31.728ZM88.6283 31.903V39.4655H96.2283V37.4655H91.0658C91.0658 37.4655 91.0146 35.7566 90.9408 32.578C90.932 32.2055 90.0986 31.9808 89.7283 31.9405C89.398 31.9046 88.6283 31.903 88.6283 31.903ZM34.9908 31.728C34.7245 31.7284 34.1233 32.2367 33.9533 32.403C33.7935 32.5592 33.469 33.0868 33.4658 33.353C33.428 34.9029 33.4253 36.4528 33.4283 38.003C33.4293 38.299 33.7047 38.6461 33.9033 38.8655C34.1019 39.085 34.4573 39.4616 34.7533 39.4655C37.2904 39.4339 39.8291 39.5247 42.3658 39.4655C42.6614 39.452 43.0213 39.1766 43.2408 38.978C43.4602 38.7794 43.8105 38.3161 43.8132 38.2007C43.8323 37.4064 43.8283 35.6405 43.8283 35.6405C43.8283 35.6405 43.8404 34.4993 43.8033 33.403C43.7936 33.1222 43.6121 32.4619 43.4283 32.278C43.2444 32.0941 42.8008 31.7287 42.5408 31.728C40.5552 31.7228 37.3727 31.7245 34.9908 31.728ZM108.628 31.853V39.4655H111.141V33.928L115.566 39.4655H119.028V31.8655H116.628V37.078C115.281 35.3721 113.776 33.8148 112.265 32.2573C111.899 31.8828 110.432 31.8706 110.432 31.8706L108.628 31.853ZM100.778 31.853L96.5908 39.4655H97.9658H99.3408L100.141 38.2405L104.528 38.2655L105.341 39.503L107.891 39.4655L107.766 39.1155C106.576 36.6671 105.277 34.2717 104.028 31.853H100.778ZM45.0283 31.728V35.6655V39.4655H46.2283H47.4283V38.0655V36.6655H47.8533C48.0865 36.6655 49.1073 37.2955 50.1158 38.0655L51.9408 39.4655H53.5783H55.2158L53.6408 38.1655C52.7752 37.4505 51.6964 36.5758 51.2533 36.2155L50.4533 35.553L52.4408 33.728L54.3982 31.728H51.3885L49.7783 33.2655C48.926 34.0355 48.0476 34.6655 47.8283 34.6655H47.4283V33.2655V31.728H45.0283ZM120.228 31.8655V39.4655C123.074 39.4445 125.92 39.4975 128.766 39.4655C129.079 39.4589 129.472 39.2268 129.703 39.0155C129.928 38.81 130.224 38.4454 130.228 38.1405C130.224 36.5364 130.243 34.9321 130.228 33.328C130.223 33.0266 129.955 32.677 129.753 32.453C129.548 32.2249 129.216 31.9259 128.91 31.9143L120.228 31.8655ZM87.8158 31.903H85.3533L82.6283 34.628L81.2533 33.2155L80.0158 31.903H77.3408L79.4158 34.453L81.4283 36.828V39.4655H83.8283V36.828L85.8408 34.2655L87.8158 31.903ZM76.6283 31.978C76.6283 31.978 71.5892 32.0262 69.3783 32.028C69.2042 32.0281 68.7835 32.149 68.6533 32.2655C68.5015 32.4013 68.2387 32.7494 68.2408 32.953L68.2283 39.4655H72.4283H76.6283V37.4655H70.6283V36.4762H76.6283V34.8461H70.6283V33.828H76.6283V31.978ZM4.17826 31.728L0.165764 39.4655L2.72826 39.478L3.40326 38.2655L8.05326 38.253C8.33566 38.7684 8.46762 39.0134 8.74076 39.4655H11.5908L7.61576 31.728H4.17826ZM102.328 33.728L103.491 36.2655H101.003L102.328 33.728ZM5.90558 33.6525L7.10326 36.2655L4.49076 36.253C5.01471 35.3227 5.21496 34.7382 5.90558 33.6525ZM127.241 33.8155C127.241 33.8155 127.46 33.9458 127.528 34.028C127.609 34.1248 127.703 34.403 127.703 34.403V37.0905C127.703 37.0905 127.601 37.2635 127.541 37.328C127.481 37.3916 127.316 37.503 127.316 37.503H122.628V33.828L127.241 33.8155ZM37.1033 34.028C38.2658 34.0297 39.4283 34.0297 40.5908 34.028C40.9659 34.0427 41.0873 34.1016 41.1532 34.2108C41.2264 34.3321 41.2449 34.7138 41.2408 35.0905C41.2356 35.5574 41.2312 36.4578 41.2207 36.9285C41.2207 36.9285 41.2287 37.25 41.1506 37.3305C41.0752 37.4082 40.6396 37.4505 40.6396 37.4505H36.8588C36.0477 37.499 36.0015 37.1943 35.9558 36.8003C35.9527 36.3453 35.9532 36.0648 35.9658 35.228C35.987 34.4405 35.8753 34.1015 36.4889 34.033C36.6976 34.0097 36.7774 34.0266 37.1033 34.028Z" fill="black" fill-opacity="0.2"/>
</g>
<defs>
<clipPath id="clip0_14_53">
<rect width="130.4" height="40" fill="white"/>
</clipPath>
</defs>
</svg>
