<svg width="165" height="30" viewBox="0 0 165 30" fill="none" xmlns="http://www.w3.org/2000/svg">
<g clip-path="url(#clip0_14_68)">
<path d="M6.36688 24.2731H3.16549L1.91749 28.8872H17.4361L18.6299 24.2731H14.8859L18.6299 8.91116H21.1801L20.9631 11.4624H26.3349L28.5053 3.37433H2.67715L0.560974 11.4624H6.14985L7.28933 8.85688H10.0566L6.36688 24.2731ZM46.8454 3.37433H58.8371L42.8302 28.8872H32.7919L31.3811 7.98835H29.3192L30.513 3.37433H43.8069L42.6131 7.98835H40.3342L40.2799 21.0704L47.9307 7.98835H45.3804L46.8454 3.37433ZM77.6114 10.9196C77.6114 8.36833 78.4253 6.08846 79.4563 3.75432C74.9527 2.94008 70.0691 2.61438 65.6198 3.75432C63.1238 4.40571 60.5192 5.9799 59.1084 8.20549C57.4807 10.7025 57.8604 13.9052 59.8681 16.0222C60.8991 17.0535 62.1471 17.7592 63.4493 18.3563C64.4803 18.8449 66.2709 19.6049 66.5422 20.7991C67.3019 23.8389 62.4183 24.1103 60.5192 23.5132V21.1248H55.4187L53.4653 28.2358C58.0232 29.3757 62.7982 29.7557 67.4103 28.7243C70.1777 28.0729 72.6737 26.6615 74.5185 24.436C76.0379 22.5361 76.906 19.0078 75.2782 16.945C74.3558 15.8051 73.3248 14.9365 72.0768 14.2309C70.8831 13.5252 69.5808 13.0909 68.4955 12.2767C67.1933 11.2995 67.1933 9.77969 68.6041 8.91116C69.6893 8.20549 71.4799 8.53119 72.6737 8.74831L72.8907 10.8653H77.6114V10.9196Z" fill="black" fill-opacity="0.2"/>
<path d="M147.605 3.86388C145.489 3.04963 143.481 3.10392 141.311 3.64674C139.194 4.18957 137.675 5.38379 135.993 6.68657C134.311 7.98936 132.521 9.29213 130.568 10.1607C128.56 11.0292 126.281 11.952 124.11 11.0835C125.684 11.1377 127.149 10.812 128.505 9.94352C129.536 9.29213 131.326 7.93507 131.706 6.68657H129.916C131.219 5.27522 132.846 4.18957 134.636 3.53818L133.769 2.50681C136.156 0.878334 138.761 0.118377 141.636 0.00981176C142.993 -0.0444708 144.35 0.118377 145.598 0.498355C146.954 0.878333 147.985 1.52972 148.962 2.50681L147.605 3.86388ZM113.258 9.56355C112.499 9.56355 111.848 9.61784 111.087 9.83496C110.382 10.0521 109.731 10.3235 109.026 10.5949C107.723 11.1377 106.475 11.8434 105.227 12.4949C104.685 12.7662 104.034 13.092 103.437 13.2005C102.786 13.3091 101.917 13.3091 101.321 13.0376C100.669 12.712 100.127 12.3862 99.5843 11.8977C99.0416 11.4092 98.499 10.9206 97.9564 10.5406C97.3595 10.1607 96.7627 9.88925 96.1658 9.50927C96.4371 9.50927 97.8479 9.45498 97.468 8.85788C97.1425 8.36933 96.3828 8.1522 95.7859 8.04363C94.4295 7.77222 93.0729 7.77222 91.7164 7.77222C92.8559 6.79513 94.1039 6.30659 95.6231 6.30659C97.0339 6.30659 98.1735 6.95798 99.3672 7.66366C99.964 8.04363 100.669 8.69502 101.266 9.075C101.863 9.45498 102.514 9.67211 103.165 9.88925C104.413 10.3235 105.987 10.1064 107.235 9.67211C108.266 9.29213 109.188 8.85788 110.328 8.85788C111.359 8.69502 112.335 8.96643 113.258 9.56355Z" fill="black" fill-opacity="0.2"/>
<path d="M102.624 20.4704C104.849 20.3619 106.694 18.1907 107.942 16.5621C109.298 14.8251 110.22 12.2195 112.337 11.2424C115.483 9.8311 118.793 11.0253 121.67 12.5452C124.382 13.9023 128.181 13.6852 130.893 12.491C133.878 11.1882 136.157 8.96258 138.708 7.06269C141.094 5.27137 144.188 4.02287 147.878 4.99995L149.506 3.04578L149.831 6.24845L155.582 12.0567L154.443 13.4138H150.753V12.491C149.668 11.731 148.529 11.1882 147.172 11.351C145.761 11.5139 144.242 12.1652 144.459 13.848C144.622 14.988 146.25 16.0193 147.063 16.6164C148.203 17.3764 149.397 18.0821 150.59 18.842C153.032 20.3619 155.366 22.0447 157.644 23.836C159.761 25.5188 161.931 27.2558 163.559 29.3729L158.567 28.3958C159.489 27.7443 158.404 27.0387 157.808 26.5501C157.048 25.953 156.288 25.4644 155.42 24.976C153.738 24.0531 151.947 23.5645 150.102 23.1303C146.576 22.2618 142.018 21.719 138.924 23.9445C138.816 23.9989 138.708 24.1074 138.599 24.1617L136.862 22.6961C131.273 24.596 125.033 24.1074 119.879 21.2848C117.762 22.7503 115.321 23.0761 112.879 23.3474C110.546 23.6189 108.104 23.456 105.717 23.2389C100.019 27.9614 92.2601 30.7299 84.9891 28.2329L89.8726 26.9844V28.0701C95.1359 28.0701 99.5311 24.3789 102.624 20.4704Z" fill="black" fill-opacity="0.2"/>
</g>
<defs>
<clipPath id="clip0_14_68">
<rect width="164.444" height="30" fill="white"/>
</clipPath>
</defs>
</svg>
