<svg width="22" height="27" viewBox="0 0 22 27" fill="none" xmlns="http://www.w3.org/2000/svg">
<path fill-rule="evenodd" clip-rule="evenodd" d="M16.8247 12.5773C17.9037 12.1598 18.8294 11.4227 19.4779 10.4647C20.1265 9.50663 20.4669 8.37334 20.4536 7.2165C20.4536 2.39175 17.0309 0 12.3299 0H0V26.2351H13.4021C17.5258 26.2351 21.567 23.3485 21.567 18.9361C21.567 13.6907 16.8247 12.6268 16.8247 12.5773ZM6.43299 5.4433H11.2165C11.5228 5.42431 11.8298 5.46592 12.12 5.56574C12.4103 5.66555 12.6779 5.82162 12.9077 6.02501C13.1375 6.2284 13.325 6.47511 13.4594 6.75103C13.5937 7.02695 13.6723 7.32665 13.6907 7.63299C13.6907 7.72646 13.6907 7.82131 13.6907 7.91753C13.6777 8.56249 13.4104 9.17619 12.947 9.62494C12.4835 10.0737 11.8615 10.3211 11.2165 10.3134H6.39175L6.43299 5.4433ZM11.2577 20.7423H6.47423V15.5876H11.134C13.4845 15.5876 14.5979 16.6186 14.5979 18.1443C14.5979 20.0495 13.1959 20.7423 11.2577 20.7423Z" fill="black" fill-opacity="0.2"/>
</svg>
