<svg width="131" height="39" viewBox="0 0 131 39" fill="none" xmlns="http://www.w3.org/2000/svg">
<path d="M65 0.00580759C60.2026 0.14846 55.7978 2.81824 53.6125 7.26831C52.1438 10.2591 52.0259 14.9221 53.35 17.8058C55.1279 21.6779 58.995 24.6794 63.0625 25.3433C72.8395 26.9392 80.858 17.4845 77.475 8.35581C76.2746 5.11674 72.9285 1.76882 69.8625 0.743308C68.2459 0.202596 66.5991 -0.0417444 65 0.00580759ZM64.9 1.45581C65.6408 1.48338 65.7657 1.7688 64.9625 2.21831C63.4483 3.06567 61.4128 5.12756 60.4 6.85581C59.8203 7.845 59.1403 9.58329 58.8875 10.7058L58.425 12.7433L57.7875 11.7433C56.8888 10.3578 56.149 7.16749 56.45 5.96831C56.7925 4.60376 60.3153 2.28572 62.9625 1.69331C63.7796 1.51046 64.4555 1.43926 64.9 1.45581ZM71.825 3.89331C72.3823 3.91785 72.8185 4.2391 73.575 5.04331C74.2549 5.76612 75.2451 7.29242 75.775 8.44331C76.3224 9.63208 76.684 11.0685 76.6125 11.7683L76.4875 13.0058L74.925 11.1308C72.9978 8.81766 70.4578 7.1689 67.85 6.54331C64.8813 5.83112 65.8464 5.08396 71.2125 3.95581C71.4422 3.90751 71.6392 3.88513 71.825 3.89331ZM65.2375 7.10581C68.021 7.01169 71.0875 9.87003 71.0875 12.7558C71.0875 14.5704 69.8024 16.6387 68.05 17.6433C66.1453 18.7353 64.5247 18.7821 62.6875 17.8058C57.6141 15.1098 58.9066 8.22784 64.6875 7.16831C64.8696 7.13493 65.0519 7.11208 65.2375 7.10581ZM63.175 8.96831L63.025 9.53081H63.9375L62.425 14.4933L62.1889 14.7678L61.7271 14.8468L61.2995 15.7533L68.5 15.7683L69.8 12.6308L68.925 12.6433L68.6375 13.5558C68.6375 13.5558 68.3351 14.4249 68.0519 14.6122C67.6848 14.855 66.4287 14.7798 66.4287 14.7798L65.0843 14.7566L66.5375 9.61831L67.5125 9.60581L67.6625 8.98081L63.175 8.96831ZM53.8875 12.4933L55.95 14.7433C58.1117 17.1086 60.7207 18.7008 63.2125 19.1683C64.0254 19.3208 64.6875 19.5842 64.6875 19.7558C64.6875 19.9274 63.9766 20.3551 63.1 20.7058C60.2488 21.8466 58.6116 21.924 57.4125 20.9808C56.0065 19.8748 53.8875 15.5903 53.8875 13.8558V12.4933ZM72.125 13.3308C72.6533 13.2699 73.8936 15.8853 74.1625 18.1558C74.3749 19.9489 74.3304 20.0489 72.775 21.2808C71.8884 21.983 70.5594 22.816 69.825 23.1183C69.0906 23.4206 67.707 23.7856 66.75 23.9433L65.0125 24.2308L67.7875 21.4933C70.4794 18.835 71.8875 16.2853 71.8875 14.0808C71.8875 13.5798 71.9771 13.3479 72.125 13.3308ZM14.1125 31.2308L13.1 31.4683C13.1 31.4683 12.4914 31.6499 12.275 31.8933C12.0605 32.1346 11.825 32.7808 11.825 32.7808C11.825 32.7808 11.5332 33.5093 11.5625 33.8308C11.5902 34.1346 11.9184 34.8806 12.05 35.1558C12.2209 35.5132 12.7296 35.9495 13.075 35.9558C15.0746 35.9924 18.4125 36.0308 18.4125 36.0308C18.4125 36.0308 18.6126 36.1718 18.675 36.2558C18.7477 36.3537 18.8244 36.5058 18.8375 36.6183C18.8549 36.7678 18.7893 36.9996 18.7375 37.0933C18.6647 37.225 18.4125 37.3683 18.4125 37.3683H11.6625V37.6933C11.6625 37.8693 11.7724 38.2833 12.0625 38.5183C12.0625 38.5183 12.4106 38.9718 12.625 38.9683C12.625 38.9683 17.8502 39.0077 20.175 38.9558C20.3665 38.9515 20.5037 38.7477 20.6402 38.5736C20.7658 38.4134 20.8721 38.119 20.95 37.9308C21.0569 37.0755 21.1048 36.132 20.9 35.2933C20.8146 35.1364 20.7125 34.7404 20.5625 34.6433C20.4125 34.5462 20.1165 34.3586 19.9625 34.3558C19.9625 34.3558 15.8749 34.3349 14.2 34.3308C13.9919 34.3303 14.0442 33.861 14.0523 33.653C14.0609 33.4347 14.0441 32.9603 14.2625 32.9558C16.1817 32.917 20.8625 32.9433 20.8625 32.9433V32.3433C20.8625 32.3433 20.7066 31.9468 20.55 31.7933C20.3833 31.6298 19.9903 31.4463 19.775 31.3558C19.4714 31.2282 18.8125 31.2308 18.8125 31.2308H14.1125ZM22.4625 31.2308V38.9683H24.8125V36.0433H29.625V38.9683H32.0625V31.2308C32.0625 31.2308 31.4725 31.3151 31.0678 31.3982C30.743 31.4649 30.2558 31.6254 30.015 31.8535C29.75 32.1047 29.6324 32.7984 29.6324 32.7984L29.625 34.1933H24.8125V32.8933C24.8125 32.8933 24.8444 31.9857 24.575 31.6933C24.3603 31.4602 23.955 31.4188 23.625 31.3808C23.295 31.3428 22.4625 31.2308 22.4625 31.2308ZM59.2625 31.2308V38.9683H66.8625V36.9683H61.4625C61.4876 35.293 61.4959 33.6183 61.4625 31.9433C61.1843 31.551 60.9629 31.6171 60.6333 31.4433C60.3096 31.2726 59.2625 31.2308 59.2625 31.2308ZM88.4625 31.4058V38.9683H96.0625V36.9683H90.9C90.9 36.9683 90.8488 35.2594 90.775 32.0808C90.7663 31.7083 89.9329 31.4836 89.5625 31.4433C89.2323 31.4074 88.4625 31.4058 88.4625 31.4058ZM34.825 31.2308C34.5588 31.2312 33.9576 31.7396 33.7875 31.9058C33.6277 32.062 33.3032 32.5896 33.3 32.8558C33.2622 34.4057 33.2595 35.9556 33.2625 37.5058C33.2635 37.8018 33.5389 38.1489 33.7375 38.3683C33.9361 38.5878 34.2916 38.9644 34.5875 38.9683C37.1246 38.9367 39.6633 39.0275 42.2 38.9683C42.4957 38.9548 42.8556 38.6794 43.075 38.4808C43.2945 38.2822 43.6447 37.8189 43.6475 37.7035C43.6665 36.9092 43.6625 35.1433 43.6625 35.1433C43.6625 35.1433 43.6746 34.0021 43.6375 32.9058C43.6278 32.625 43.4464 31.9647 43.2625 31.7808C43.0786 31.597 42.635 31.2315 42.375 31.2308C40.3895 31.2256 37.207 31.2273 34.825 31.2308ZM108.463 31.3558V38.9683H110.975V33.4308L115.4 38.9683H118.863V31.3683H116.463V36.5808C115.115 34.8749 113.61 33.3176 112.099 31.7601C111.734 31.3856 110.266 31.3734 110.266 31.3734L108.463 31.3558ZM100.613 31.3558L96.425 38.9683H97.8H99.175L99.975 37.7433L104.363 37.7683L105.175 39.0058L107.725 38.9683L107.6 38.6183C106.41 36.1699 105.111 33.7745 103.863 31.3558H100.613ZM44.8625 31.2308V35.1683V38.9683H46.0625H47.2625V37.5683V36.1683H47.6875C47.9207 36.1683 48.9416 36.7983 49.95 37.5683L51.775 38.9683H53.4125H55.05L53.475 37.6683C52.6094 36.9533 51.5306 36.0786 51.0875 35.7183L50.2875 35.0558L52.275 33.2308L54.2324 31.2308H51.2227L49.6125 32.7683C48.7602 33.5383 47.8819 34.1683 47.6625 34.1683H47.2625V32.7683V31.2308H44.8625ZM120.063 31.3683V38.9683C122.908 38.9473 125.754 39.0003 128.6 38.9683C128.913 38.9617 129.306 38.7296 129.538 38.5183C129.763 38.3128 130.058 37.9482 130.063 37.6433C130.058 36.0392 130.077 34.4349 130.063 32.8308C130.057 32.5294 129.789 32.1798 129.588 31.9558C129.382 31.7277 129.051 31.4287 128.744 31.4171L120.063 31.3683ZM87.65 31.4058H85.1875L82.4625 34.1308L81.0875 32.7183L79.85 31.4058H77.175L79.25 33.9558L81.2625 36.3308V38.9683H83.6625V36.3308L85.675 33.7683L87.65 31.4058ZM76.4625 31.4808C76.4625 31.4808 71.4235 31.529 69.2125 31.5308C69.0384 31.531 68.6178 31.6518 68.4875 31.7683C68.3357 31.9041 68.0729 32.2522 68.075 32.4558L68.0625 38.9683H72.2625H76.4625V36.9683H70.4625V35.979H76.4625V34.3489H70.4625V33.3308H76.4625V31.4808ZM4.0125 31.2308L0 38.9683L2.5625 38.9808L3.2375 37.7683L7.8875 37.7558C8.16989 38.2712 8.30186 38.5162 8.575 38.9683H11.425L7.45 31.2308H4.0125ZM102.162 33.2308L103.325 35.7683H100.838L102.162 33.2308ZM5.73981 33.1553L6.9375 35.7683L4.325 35.7558C4.84894 34.8255 5.0492 34.241 5.73981 33.1553ZM127.075 33.3183C127.075 33.3183 127.294 33.4486 127.363 33.5308C127.443 33.6276 127.538 33.9058 127.538 33.9058V36.5933C127.538 36.5933 127.435 36.7663 127.375 36.8308C127.316 36.8944 127.15 37.0058 127.15 37.0058H122.463V33.3308L127.075 33.3183ZM36.9375 33.5308C38.1 33.5325 39.2625 33.5325 40.425 33.5308C40.8001 33.5455 40.9215 33.6045 40.9874 33.7136C41.0607 33.8349 41.0791 34.2166 41.075 34.5933C41.0699 35.0602 41.0654 35.9607 41.055 36.4313C41.055 36.4313 41.063 36.7528 40.9848 36.8334C40.9095 36.9111 40.4739 36.9533 40.4739 36.9533H36.6931C35.8819 37.0018 35.8358 36.6971 35.7901 36.3031C35.7869 35.8481 35.7875 35.5676 35.8 34.7308C35.8213 33.9433 35.7095 33.6043 36.3231 33.5358C36.5318 33.5125 36.6116 33.5294 36.9375 33.5308Z" fill="black" fill-opacity="0.2"/>
</svg>
