<svg width="58" height="14" viewBox="0 0 58 14" fill="none" xmlns="http://www.w3.org/2000/svg">
<path d="M55.889 3.86388C53.7723 3.04963 51.7646 3.10392 49.5946 3.64674C47.4779 4.18957 45.959 5.38379 44.2768 6.68657C42.5946 7.98936 40.8046 9.29213 38.8512 10.1607C36.8434 11.0292 34.5646 11.952 32.3934 11.0835C33.9679 11.1377 35.4323 10.812 36.789 9.94352C37.8201 9.29213 39.6101 7.93507 39.9901 6.68657H38.2001C39.5023 5.27522 41.1301 4.18957 42.9201 3.53818L42.0523 2.50681C44.4401 0.878334 47.0446 0.118377 49.9201 0.00981176C51.2768 -0.0444708 52.6334 0.118377 53.8812 0.498355C55.2379 0.878333 56.269 1.52972 57.2457 2.50681L55.889 3.86388ZM21.5412 9.56355C20.7823 9.56355 20.1312 9.61784 19.3711 9.83496C18.6658 10.0521 18.0147 10.3235 17.3092 10.5949C16.007 11.1377 14.759 11.8434 13.511 12.4949C12.9683 12.7662 12.3172 13.092 11.7203 13.2005C11.0692 13.3091 10.2011 13.3091 9.60422 13.0376C8.95311 12.712 8.41044 12.3862 7.86789 11.8977C7.32522 11.4092 6.78266 10.9206 6.24 10.5406C5.64311 10.1607 5.04633 9.88925 4.44945 9.50927C4.72078 9.50927 6.13155 9.45498 5.75166 8.85788C5.42611 8.36933 4.66644 8.1522 4.06955 8.04363C2.71311 7.77222 1.35656 7.77222 0 7.77222C1.13956 6.79513 2.38755 6.30659 3.90678 6.30659C5.31755 6.30659 6.45712 6.95798 7.65078 7.66366C8.24767 8.04363 8.95311 8.69502 9.54989 9.075C10.1468 9.45498 10.7979 9.67211 11.4491 9.88925C12.6971 10.3235 14.2707 10.1064 15.5187 9.67211C16.5496 9.29213 17.472 8.85788 18.6116 8.85788C19.6423 8.69502 20.619 8.96643 21.5412 9.56355Z" fill="black" fill-opacity="0.2"/>
</svg>
