<svg width="39" height="48" viewBox="0 0 39 48" fill="none" xmlns="http://www.w3.org/2000/svg">
<path fill-rule="evenodd" clip-rule="evenodd" d="M17.3724 0.087279C17.1643 0.136497 16.622 0.356809 16.0254 0.634582C15.4761 0.890403 14.9222 1.14658 14.7944 1.20406C14.4554 1.35665 13.6399 1.72884 13.2383 1.91429C12.8255 2.10496 11.4009 2.75887 10.939 2.96964C10.7602 3.05127 10.2585 3.2812 9.82424 3.48059C9.38993 3.67998 8.89872 3.90549 8.73266 3.98156C8.5666 4.05773 8.27396 4.19325 8.08235 4.28267C7.89075 4.37197 7.62946 4.49216 7.50172 4.54964C7.37399 4.60711 6.97683 4.78898 6.61917 4.95388C6.2615 5.11866 5.82742 5.31863 5.65463 5.39818C5.27687 5.57213 5.28105 5.57991 5.89919 5.85037C6.14189 5.95651 6.48679 6.1127 6.66562 6.19747C6.84445 6.28212 7.10573 6.40335 7.24625 6.46676C7.38676 6.53017 7.64804 6.64897 7.82688 6.73083C9.6821 7.57983 10.4176 7.91682 10.6139 8.00787C10.7416 8.06722 10.982 8.17881 11.1481 8.25591C11.9115 8.61033 12.1732 8.72947 12.1884 8.72947C12.1975 8.72947 12.4426 8.842 12.7332 8.97961C13.19 9.19595 14.4913 9.79504 15.1428 10.0891C15.2578 10.1409 15.5681 10.2847 15.8324 10.4087C16.0965 10.5326 16.3193 10.6339 16.327 10.6339C16.3423 10.6339 16.7367 10.8146 17.8678 11.3396C18.7195 11.7348 18.882 11.874 18.882 12.2078C18.882 12.5201 18.7262 12.7086 18.2942 12.9191C16.8452 13.625 14.5643 14.6334 14.47 14.6097C14.4114 14.5951 14.1574 14.487 13.9055 14.3696C13.6535 14.2523 13.3847 14.1283 13.308 14.0941C13.0994 14.0011 10.4344 12.7824 10.0333 12.5966C9.84166 12.5079 9.60128 12.3972 9.49908 12.3509C9.39689 12.3044 9.14606 12.1893 8.94168 12.095C8.54628 11.9126 8.159 11.7356 7.78043 11.5645C7.65269 11.5066 7.38095 11.381 7.17657 11.2852C6.63392 11.0306 4.7831 10.1855 4.54621 10.084C4.34728 9.99861 3.47855 9.60216 2.87992 9.32334C2.2619 9.03547 1.3164 8.59907 1.09158 8.49792C0.963845 8.44046 0.723466 8.33244 0.557405 8.25788C0.391346 8.18345 0.219131 8.10228 0.174772 8.07766C0.130409 8.05293 0.0729281 8.03272 0.0470326 8.03272C0.0156762 8.03272 1.23978e-06 9.28177 1.23978e-06 11.7875V15.5423L0.592243 15.8107C1.61206 16.273 2.00364 16.4518 2.57799 16.7178C3.00232 16.9142 3.36231 17.0795 4.55213 17.6242C5.99662 18.2855 6.22597 18.3975 6.20402 18.4319C6.18172 18.4669 5.97804 18.5715 5.57404 18.7553C4.84337 19.088 4.29724 19.3399 3.5999 19.6662C3.21169 19.8478 2.72245 20.0737 1.55144 20.6118C0.935743 20.8947 0.334792 21.1734 0.215995 21.2311L1.23978e-06 21.336V25.0943C1.23978e-06 28.0824 0.0118477 28.8476 0.0580669 28.8287C0.140051 28.7955 1.20504 28.3073 1.64899 28.0997C2.03778 27.9177 2.26817 27.8123 2.69412 27.6213C2.83463 27.5583 3.08546 27.4435 3.25152 27.3663C3.61128 27.1987 6.9564 25.6664 7.22302 25.5469C7.48059 25.4315 10.118 24.2216 10.5442 24.0232C10.7358 23.934 10.9971 23.8135 11.1248 23.7554C11.2526 23.6973 12.0685 23.323 12.938 22.9236L14.519 22.1974L15.1909 22.5034C15.5604 22.6716 15.9673 22.8583 16.095 22.9181C16.4396 23.0796 16.939 23.3078 17.7348 23.6673C18.7009 24.1037 18.9781 24.3642 18.8829 24.7456C18.7946 25.0994 18.7002 25.1582 16.9311 25.9618C16.5224 26.1476 16.0521 26.3623 15.886 26.4392C15.7199 26.516 15.4482 26.6405 15.2821 26.7156C15.1161 26.7909 14.8548 26.9128 14.7015 26.9866C14.5482 27.0604 14.2974 27.1757 14.1441 27.2428C13.8679 27.3637 12.6116 27.9352 12.0306 28.2042C11.8646 28.2811 11.6242 28.3915 11.4965 28.4497C11.2332 28.5694 10.7119 28.8096 10.2655 29.0166C10.0995 29.0937 9.49328 29.3709 8.91846 29.6326C8.34364 29.8943 7.74791 30.1665 7.59463 30.2375C7.44134 30.3084 7.18006 30.4293 7.014 30.5062C6.84794 30.5829 6.56575 30.7121 6.38692 30.7929C5.21382 31.3236 5.25458 31.2891 5.61166 31.4477C5.94785 31.5971 6.21227 31.7182 6.6424 31.9195C7.22407 32.192 7.4864 32.3125 8.63976 32.8375C9.21458 33.0992 9.85211 33.3916 10.0565 33.4875C10.2609 33.5833 10.5326 33.708 10.6603 33.7646C10.7881 33.8211 11.018 33.9263 11.1713 33.9984C11.3246 34.0705 11.5545 34.1758 11.6823 34.2323C11.81 34.2889 12.0817 34.4135 12.2861 34.5093C12.4905 34.605 13.034 34.8557 13.4938 35.0664C14.457 35.5079 14.5737 35.5616 15.8163 36.1349C15.9952 36.2175 16.2564 36.3369 16.397 36.4004C16.5375 36.4638 16.7569 36.5631 16.8847 36.6211C17.5082 36.9041 18.3936 36.9077 19.0034 36.6297C19.594 36.3604 21.4173 35.5277 21.7155 35.3909C22.1084 35.2108 22.434 35.0627 22.7142 34.9367C22.8292 34.8851 23.1113 34.7555 23.3413 34.6488C23.5712 34.542 23.8534 34.4123 23.9684 34.3605C24.0833 34.3089 24.3446 34.1881 24.549 34.0923C24.9105 33.923 25.5626 33.6253 26.1283 33.3717C26.3968 33.2513 26.619 33.1489 27.2663 32.8471C27.4324 32.7697 27.6937 32.6502 27.847 32.5816C28.0002 32.5131 28.7632 32.1644 29.5424 31.8068C30.8846 31.1909 31.0776 31.1029 31.5514 30.8908C31.6599 30.8421 31.9474 30.7094 32.1901 30.5957C32.4328 30.4822 33.1016 30.1749 33.6765 29.913C35.2339 29.2034 35.6447 29.014 36.2369 28.7323C36.4317 28.6396 36.6069 28.5638 36.6262 28.5638C36.7684 28.5638 37.5948 28.0368 37.8436 27.7875C38.4359 27.1938 38.4829 26.3389 37.9616 25.644C37.747 25.3579 37.1959 25.0615 34.9753 24.0383C33.7627 23.4797 32.6187 22.9525 32.4329 22.8668C32.2471 22.7812 32.0877 22.711 32.0787 22.711C32.0696 22.711 31.8245 22.5992 31.5339 22.4626C30.8825 22.1564 30.7079 22.0758 29.6585 21.5966C29.1987 21.3866 28.6062 21.1126 28.3419 20.9875C28.0777 20.8624 27.8512 20.7601 27.8389 20.7601C27.8266 20.7601 27.6562 20.6845 27.4601 20.5922C26.8685 20.3135 26.5582 20.1698 26.3141 20.0616C26.1864 20.005 25.6533 19.7613 25.1296 19.5201C24.6059 19.2789 24.0833 19.0384 23.9684 18.9856C23.8534 18.9328 23.6339 18.8314 23.4806 18.7604C23.3273 18.6895 23.1131 18.5943 23.0045 18.5487C22.7487 18.4418 22.7547 18.4179 23.0742 18.2717C23.2211 18.2045 23.5712 18.0445 23.8522 17.9161C24.1333 17.7877 24.499 17.6202 24.6651 17.5438C24.8312 17.4675 25.082 17.3529 25.2225 17.2892C25.5279 17.1509 25.9785 16.9433 26.3605 16.7648C26.5138 16.6932 26.7647 16.5784 26.9179 16.5097C27.4664 16.264 28.831 15.6368 29.3029 15.4135C29.5671 15.2884 29.7945 15.1861 29.8082 15.1861C29.8218 15.1861 29.9818 15.1148 30.1638 15.0276C30.3457 14.9404 30.6096 14.8173 30.7501 14.7542C30.8906 14.691 31.1414 14.5769 31.3075 14.5006C31.6995 14.3203 32.5553 13.9294 32.91 13.7685C33.0633 13.699 33.3455 13.569 33.5371 13.4798C33.7287 13.3905 33.9273 13.3014 33.9784 13.2815C34.1216 13.2261 36.382 12.1856 36.9055 11.9343C37.9534 11.431 38.2988 11.0046 38.2976 10.2159C38.2958 9.26564 37.9015 8.88672 36.0222 8.03018C35.8434 7.94866 35.5821 7.82963 35.4416 7.76553C35.3011 7.70143 34.7785 7.4614 34.2803 7.23205C33.7821 7.0027 32.9251 6.61043 32.3759 6.36029C31.8266 6.11027 31.2413 5.84342 31.0753 5.76736C30.9092 5.69129 30.5329 5.51942 30.2391 5.38553C29.9453 5.25152 29.5304 5.06085 29.3171 4.96156C29.1038 4.86239 28.9214 4.78122 28.9115 4.78122C28.9017 4.78122 28.6896 4.68483 28.44 4.56696C27.777 4.25377 27.4579 4.10559 27.1966 3.9897C27.0689 3.93316 26.5672 3.70426 26.0818 3.48119C25.2478 3.09786 24.004 2.52838 23.3877 2.24759C23.2344 2.1778 22.9137 2.0295 22.6751 1.91802C22.4364 1.80666 22.2345 1.7155 22.2265 1.7155C22.2185 1.7155 22.0165 1.62434 21.7779 1.51286C21.5392 1.40138 21.2394 1.26272 21.1117 1.20466C20.9839 1.14659 20.4718 0.911678 19.9736 0.68256C18.4178 -0.0331269 18.1453 -0.0955032 17.3724 0.087279ZM3.05176e-06 44.0769V47.011L3.05411 46.9927C5.31647 46.9791 6.15641 46.9594 6.29402 46.9165C6.39621 46.8847 6.58712 46.8285 6.71823 46.7916C7.68915 46.5186 8.1122 45.4653 7.55991 44.6962C7.4223 44.5046 6.89985 44.1254 6.7713 44.1239C6.55298 44.1215 6.59978 44.0309 6.88696 43.9007C8.13438 43.3351 8.09989 41.8782 6.8282 41.4195C6.16709 41.181 6.21145 41.184 3.00766 41.1627L0 41.1429L3.05176e-06 44.0769ZM11.0923 41.2331C11.0537 41.2778 10.817 41.6593 10.5663 42.0808C10.3156 42.5023 10.0206 42.9935 9.91087 43.1724C9.80101 43.3512 9.6259 43.6438 9.5215 43.8227C9.41722 44.0015 9.29633 44.2047 9.2529 44.2743C8.85657 44.9091 7.6643 46.9245 7.6643 46.9596C7.6643 46.9872 8.07399 47.0045 8.72871 47.0045H9.79312L10.0223 46.5981C10.1483 46.3745 10.3302 46.0558 10.4265 45.8897C10.5229 45.7237 10.6592 45.4833 10.7296 45.3555C10.7999 45.2278 11.061 44.7679 11.3096 44.3336C11.7703 43.5292 11.9678 43.1785 12.1468 42.8472C12.2019 42.745 12.2768 42.6562 12.313 42.6498C12.3676 42.6402 13.517 44.5997 13.517 44.7024C13.517 44.7168 13.1962 44.7284 12.804 44.7284C12.0867 44.7284 11.8542 44.7662 11.6888 44.9093C11.6005 44.9855 11.2874 45.4355 11.2874 45.486C11.2874 45.5014 11.2352 45.591 11.1713 45.6851C11.1074 45.7793 11.0552 45.8743 11.0552 45.8962C11.0552 45.9181 11.7648 45.9362 12.6323 45.9362H14.2094L14.3432 46.1336C14.4168 46.2422 14.558 46.4825 14.657 46.6678L14.8372 47.0045H15.919C16.514 47.0045 17.0008 46.9916 17.0008 46.9758C17.0008 46.949 16.4197 45.9725 16.1886 45.611C16.1041 45.4787 14.5428 42.8875 14.3758 42.6023C14.35 42.5582 14.2376 42.3653 14.1262 42.1737C14.0149 41.9821 13.8307 41.6738 13.7171 41.4886L13.5104 41.1518H12.3365C11.276 41.1518 11.1557 41.1596 11.0923 41.2331ZM21.2278 43.1616C21.2278 46.0208 21.462 45.7678 18.7974 45.7867C17.78 45.794 16.9545 45.8149 16.9628 45.8332C17.1611 46.2663 17.5594 46.8208 17.744 46.9206C17.9773 47.0466 21.6804 47.0242 22.0114 46.8948C22.3392 46.7665 22.449 46.6975 22.6247 46.5091C23.0587 46.0432 23.0626 46.0161 23.0626 43.3815V41.1751L22.1452 41.1625L21.2278 41.1499V43.1616ZM26.4029 41.1873C26.3617 41.2152 25.7957 42.1233 25.4552 42.7079C25.3901 42.8196 25.0996 43.3059 24.8032 43.7995C24.7802 43.8378 24.4546 44.3812 24.0797 45.0072C23.7049 45.6331 23.286 46.3297 23.1491 46.5554C23.0121 46.781 22.9 46.9747 22.9 46.986C22.9 46.9971 23.3842 47.0006 23.9761 46.9937L25.0522 46.9813L25.2219 46.7026C25.3153 46.5493 25.4663 46.288 25.5573 46.1219C25.6483 45.9559 25.9917 45.3491 26.3204 44.7737C26.649 44.1982 27.0538 43.4824 27.2199 43.183C27.5585 42.5726 27.5915 42.5554 27.7761 42.8936C27.8458 43.0214 27.9824 43.2618 28.0796 43.4278C28.1767 43.5939 28.3125 43.8343 28.3812 43.962C28.4499 44.0897 28.5614 44.2883 28.6288 44.4033C28.8239 44.7354 28.8359 44.7284 28.0676 44.7287C27.2745 44.729 27.1064 44.7643 26.9096 44.9718C26.7565 45.1331 26.3373 45.8033 26.3373 45.8864C26.3373 45.9207 26.8162 45.9364 27.8818 45.9368C28.7313 45.9371 29.4479 45.9528 29.4742 45.9717C29.5277 46.0097 29.7304 46.3309 29.9574 46.7374L30.1066 47.0045H31.1715C32.3443 47.0045 32.3212 47.0113 32.1237 46.7208C32.0617 46.6296 31.9703 46.4836 31.9206 46.3964C31.8709 46.3093 31.3969 45.5169 30.8673 44.6355C30.3376 43.7541 29.8642 42.9635 29.8152 42.8786C29.7661 42.7937 29.6891 42.6683 29.644 42.5999C29.5988 42.5315 29.5377 42.4338 29.5084 42.3827C29.2279 41.896 28.864 41.2987 28.8078 41.233C28.7345 41.1473 26.5243 41.1053 26.4029 41.1873ZM36.4945 41.183C36.4774 41.2 36.4635 42.1249 36.4633 43.2384C36.4633 46.0387 36.7209 45.7639 34.0641 45.797L32.1987 45.8202L32.4759 46.2615C32.9829 47.0685 32.7903 47.0159 35.1629 46.9945C37.3865 46.9743 37.5587 46.9391 37.9917 46.4157C38.308 46.0333 38.3215 45.9103 38.3215 43.3999V41.152H37.4235C36.9295 41.152 36.5114 41.1659 36.4945 41.183ZM5.2685 42.4042C5.78886 42.5248 5.90487 42.9684 5.48112 43.2167C5.33062 43.3048 5.2217 43.3137 4.01794 43.3352C2.49913 43.3623 2.59122 43.3336 2.26177 43.8871C1.83779 44.6 1.86137 44.6258 1.85951 43.4474C1.85878 42.8832 1.87194 42.4076 1.889 42.3907C1.93615 42.3434 5.06051 42.356 5.2685 42.4042ZM5.49447 44.6948C5.78792 44.9185 5.82172 45.3152 5.56798 45.5548C5.33887 45.771 5.21496 45.7897 3.98159 45.7935C2.54209 45.7978 2.61281 45.7736 2.23006 46.3965C2.07144 46.6545 1.92291 46.8772 1.89992 46.8914C1.87541 46.9066 1.858 46.4231 1.858 45.7285V44.5396L3.59199 44.5529L5.32586 44.5661L5.49447 44.6948Z" fill="black" fill-opacity="0.2"/>
</svg>
