<svg width="30" height="25" viewBox="0 0 30 25" fill="none" xmlns="http://www.w3.org/2000/svg">
<path d="M23.0939 0H21.7331V6.80412H8.08357V0H6.68151C4.62794 1.35476 2.94259 3.19788 1.77649 5.36415C0.6104 7.53043 0 9.95218 0 12.4124C0 14.8726 0.6104 17.2943 1.77649 19.4606C2.94259 21.6269 4.62794 23.47 6.68151 24.8247H8.08357V18.0289H21.7331V24.833H23.0939C25.1483 23.4789 26.8346 21.636 28.0013 19.4696C29.168 17.3033 29.7788 14.8812 29.7788 12.4206C29.7788 9.96005 29.168 7.53796 28.0013 5.3716C26.8346 3.20524 25.1483 1.36235 23.0939 0.00824683V0ZM6.18667 22.1526C4.90775 21.0162 3.8652 19.6391 3.11855 18.0998C2.37189 16.5605 1.93576 14.8892 1.83505 13.1813C1.73434 11.4735 1.97102 9.7625 2.53159 8.14612C3.09216 6.52974 3.96563 5.03961 5.10213 3.76082C5.44277 3.38032 5.80487 3.0196 6.18667 2.68041V22.1526ZM21.7331 16.132H8.08357V8.65979H21.7331V16.132ZM23.5887 22.1113V17.9876V6.80412V2.68041C24.8645 3.826 25.9021 5.21174 26.6421 6.75846C27.3821 8.30519 27.8101 9.98257 27.9017 11.6948C27.9932 13.407 27.7464 15.1204 27.1755 16.7372C26.6046 18.354 25.7207 19.8425 24.5743 21.1175C24.2625 21.4623 23.9335 21.7913 23.5887 22.1031V22.1113Z" fill="black" fill-opacity="0.2"/>
</svg>
