<svg width="40" height="40" viewBox="0 0 40 40" fill="none" xmlns="http://www.w3.org/2000/svg">
<path d="M19.8759 0C15.9448 0 12.1019 1.16572 8.83326 3.34976C5.56462 5.53379 3.01702 8.63805 1.51264 12.27C0.00824586 15.9019 -0.385371 19.8983 0.38156 23.754C1.14849 27.6096 3.04152 31.1512 5.82127 33.931C8.60102 36.7107 12.1426 38.6037 15.9983 39.3707C19.8539 40.1376 23.8503 39.744 27.4823 38.2396C31.1142 36.7352 34.2184 34.1876 36.4025 30.919C38.5865 27.6503 39.7522 23.8074 39.7522 19.8763C39.7522 14.6048 37.6581 9.54916 33.9306 5.82163C30.2031 2.0941 25.1475 0 19.8759 0ZM19.8759 37.8969C16.3118 37.8969 12.8277 36.84 9.86421 34.8599C6.90074 32.8798 4.59099 30.0653 3.22705 26.7725C1.86311 23.4796 1.50624 19.8563 2.20157 16.3606C2.8969 12.865 4.6132 9.65402 7.13343 7.13379C9.65366 4.61356 12.8646 2.89726 16.3603 2.20193C19.8559 1.5066 23.4793 1.86347 26.7721 3.22741C30.065 4.59135 32.8794 6.90109 34.8595 9.86457C36.8397 12.828 37.8966 16.3121 37.8966 19.8763C37.8955 24.6553 35.9965 29.2383 32.6172 32.6176C29.2379 35.9969 24.655 37.8958 19.8759 37.8969Z" fill="black" fill-opacity="0.2"/>
<path d="M28.0822 7.46375H26.7213V14.2679H13.0719V7.46375H11.6698C9.61622 8.81851 7.93087 10.6616 6.76478 12.8279C5.59868 14.9942 4.98828 17.4159 4.98828 19.8761C4.98828 22.3363 5.59868 24.7581 6.76478 26.9243C7.93087 29.0906 9.61622 30.9337 11.6698 32.2885H13.0719V25.4926H26.7213V32.2967H28.0822C30.1366 30.9426 31.8228 29.0997 32.9896 26.9334C34.1563 24.767 34.767 22.3449 34.767 19.8844C34.767 17.4238 34.1563 15.0017 32.9896 12.8353C31.8228 10.669 30.1366 8.8261 28.0822 7.47199V7.46375ZM11.1749 29.6163C9.89603 28.48 8.85348 27.1028 8.10683 25.5635C7.36017 24.0242 6.92404 22.3529 6.82333 20.6451C6.72262 18.9372 6.9593 17.2262 7.51987 15.6099C8.08044 13.9935 8.95392 12.5034 10.0904 11.2246C10.4311 10.8441 10.7932 10.4833 11.1749 10.1442V29.6163ZM26.7213 23.5957H13.0719V16.1235H26.7213V23.5957ZM28.577 29.5751V25.4514V14.2679V10.1442C29.8528 11.2897 30.8903 12.6755 31.6304 14.2222C32.3704 15.7689 32.7984 17.4463 32.8899 19.1585C32.9815 20.8707 32.7347 22.5842 32.1638 24.201C31.5929 25.8177 30.709 27.3062 29.5626 28.5813C29.2508 28.9261 28.9218 29.255 28.577 29.5668V29.5751Z" fill="black" fill-opacity="0.2"/>
</svg>
