<svg width="215" height="40" viewBox="0 0 215 40" fill="none" xmlns="http://www.w3.org/2000/svg">
<path fill-rule="evenodd" clip-rule="evenodd" d="M17.0475 37.2881L25.4797 22.4961H19.736L22.5467 17.5039H35.9893L33.1174 22.4961H28.2904L19.736 37.5347C29.3291 37.473 37.1502 29.584 37.1502 19.9692C37.1502 10.3544 29.3291 2.52696 19.7971 2.52696C19.125 2.52696 18.3918 2.5886 17.7197 2.65023L9.16534 17.5039H19.736L16.8642 22.4961H3.54393L14.4812 3.38983C7.51558 5.60863 2.44409 12.265 2.44409 19.9692C2.44409 28.6595 8.79873 35.9322 17.0475 37.2881ZM19.7971 0C30.6733 0 39.6554 8.99846 39.6554 19.9692C39.6554 31.0015 30.7345 40 19.7971 40C8.92094 40 0 31.0015 0 19.9692C0 8.99846 8.92094 0 19.7971 0Z" fill="black" fill-opacity="0.2"/>
<path fill-rule="evenodd" clip-rule="evenodd" d="M203.532 19.969C204.021 17.6269 205.67 15.2232 208.42 15.2232C211.17 15.2232 211.781 17.6269 211.231 19.969C210.742 22.3727 209.153 24.7764 206.342 24.7764C203.532 24.7764 202.982 22.3727 203.532 19.969ZM200.66 19.969C199.804 24.0368 201.515 26.8719 205.915 26.8719C210.253 26.8719 213.247 23.9751 214.164 19.969C215.019 15.9628 213.186 13.1277 208.909 13.1277C204.448 13.1277 201.515 15.8395 200.66 19.969ZM188.745 26.6254H191.495L192.656 21.0784H193.572C194.733 21.0784 194.977 21.4482 195.161 22.4343L195.894 26.5637H198.949L197.849 21.3249C197.727 20.7086 197.422 20.0306 196.688 19.969V19.9073C198.521 19.6608 199.866 18.3665 200.171 16.8257C200.965 13.1277 197.421 13.1893 194.489 13.1893H191.495L188.745 26.6254ZM193.939 15.4081H194.855C196.261 15.4081 197.727 15.5314 197.422 17.1338C197.055 18.7979 195.466 18.9828 194.122 18.9828H193.205L193.939 15.4081ZM177.38 26.6254H182.207C183.918 26.6254 187.156 26.1323 187.89 22.7425C188.256 21.0784 187.217 19.9073 185.384 19.7224V19.6608C187.095 19.3526 188.439 18.2432 188.745 16.7024C189.356 13.8056 186.851 13.3126 185.018 13.3126H180.252L177.38 26.6254ZM182.513 15.4081H183.551C184.834 15.4081 186.179 15.5314 185.873 17.0722C185.568 18.4281 184.101 18.6747 182.94 18.6747H181.84L182.513 15.4081ZM181.413 20.7086H182.696C184.101 20.7086 185.445 20.9551 185.079 22.7425C184.773 24.2833 183.124 24.5915 181.84 24.5915H180.557L181.413 20.7086ZM165.098 21.818C164.304 25.3927 166.076 26.8719 169.62 26.8719C173.164 26.8719 175.547 25.3927 176.341 21.818L178.174 13.3126H175.364L173.714 21.0167C173.225 23.2972 172.186 24.7764 170.048 24.7764C167.97 24.7764 167.481 23.2972 167.97 21.0167L169.62 13.3126H166.87L165.098 21.818ZM153.428 19.969C153.917 17.6269 155.566 15.2232 158.316 15.2232C161.066 15.2232 161.677 17.6269 161.127 19.969C160.638 22.3727 159.049 24.7764 156.239 24.7764C153.428 24.7764 152.939 22.3727 153.428 19.969ZM150.556 19.969C149.701 24.0368 151.411 26.8719 155.811 26.8719C160.149 26.8719 163.143 23.9751 164.06 19.969C164.915 15.9628 163.082 13.1277 158.805 13.1277C154.405 13.1277 151.473 15.8395 150.556 19.969ZM143.346 26.6254H146.096L148.54 15.4081H152.45L152.878 13.3126H142.246L141.818 15.4081H145.729L143.346 26.6254ZM130.026 19.6608C131.675 18.7979 133.02 17.9351 133.447 16.1477C133.936 13.9905 132.042 13.1277 130.148 13.1277C128.193 13.1277 125.749 14.1138 125.321 16.1477C125.015 17.6885 125.687 18.3665 126.543 19.3526C124.16 20.2771 123.182 21.3865 122.877 22.989C122.327 25.516 124.221 26.8719 126.971 26.8719C128.315 26.8719 129.842 26.4405 131.003 25.4543L131.675 26.6254H135.036L133.142 23.9751C134.547 22.6808 135.403 21.14 135.892 19.4143H133.509C133.264 20.462 132.836 21.5714 132.042 22.311L130.026 19.6608ZM128.804 18.2432C128.376 17.7502 127.765 17.0722 127.887 16.3326C128.07 15.3465 128.987 14.915 129.781 14.915C130.576 14.915 131.187 15.3465 131.003 16.271C130.881 17.1338 129.598 17.9351 128.804 18.2432ZM130.026 24.0984C129.292 24.6531 128.376 24.8996 127.459 24.8996C126.176 24.8996 125.321 24.0984 125.565 22.9274C125.81 21.8796 126.665 21.2633 127.704 20.7702L130.026 24.0984ZM103.08 26.6254H105.707L107.846 16.6408H107.907L111.023 26.6254H114.384L117.255 13.3126H114.628L112.489 23.2972H112.428L109.373 13.3126H106.012L103.08 26.6254ZM92.8755 26.6254H101.002L101.43 24.5298H96.0528L96.8472 20.7702H101.735L102.163 18.6747H97.2749L98.0081 15.4081H103.385L103.813 13.3126H95.6862L92.8755 26.6254ZM93.3643 13.5591C92.4478 13.2509 91.3479 13.066 90.187 13.066C87.7429 13.066 85.1766 14.1754 84.5045 17.1338C83.5269 21.5714 89.8204 20.5237 89.2705 23.0506C89.0261 24.2833 87.4985 24.7764 86.4598 24.7764C85.3599 24.7764 84.3823 24.4682 83.5269 23.9751L82.7325 26.3788C84.0157 26.687 84.6267 26.8719 86.1543 26.8719C88.9039 26.8719 91.5312 25.7625 92.2034 22.8657C93.181 18.4281 86.9486 19.3526 87.4374 17.0722C87.7429 15.593 89.0872 15.2232 90.0037 15.2232C90.9813 15.2232 91.8979 15.4081 92.6922 15.7779L93.3643 13.5591ZM71.7952 26.6254H74.5448L75.7058 21.0784H76.6223C77.7832 21.0784 78.0277 21.4482 78.211 22.4343L78.9442 26.5637H81.9993L80.8995 21.3249C80.7773 20.7086 80.4717 20.0306 79.7385 19.969V19.9073C81.5105 19.6608 82.9158 18.3665 83.2213 16.8257C84.0157 13.1277 80.4717 13.1893 77.5388 13.1893H74.5448L71.7952 26.6254ZM76.9889 15.4081H77.9054C79.3108 15.4081 80.7773 15.5314 80.4717 17.1338C80.1051 18.7979 78.5165 18.9828 77.1722 18.9828H76.2557L76.9889 15.4081ZM57.8028 26.6254H60.6746L62.5077 23.5437H68.068L68.6179 26.6254H71.673L69.1678 13.3126H66.0516L57.8028 26.6254ZM67.7625 21.5098H63.7297L66.907 16.0244H66.9681L67.7625 21.5098ZM49.554 26.6254H57.6195L58.0472 24.5298H52.7313L55.1754 13.3126H52.4258L49.554 26.6254Z" fill="black" fill-opacity="0.2"/>
</svg>
