<svg width="79" height="27" viewBox="0 0 79 27" fill="none" xmlns="http://www.w3.org/2000/svg">
<path d="M17.6348 17.4247C19.8596 17.3161 21.7045 15.1449 22.9525 13.5163C24.3089 11.7793 25.2313 9.17377 27.3476 8.19666C30.4942 6.78532 33.8042 7.97954 36.6809 9.49943C39.3931 10.8565 43.192 10.6394 45.9042 9.44521C48.8887 8.14243 51.1676 5.9168 53.7187 4.01691C56.1053 2.22559 59.1987 0.977089 62.8887 1.95418L64.5164 0L64.842 3.20268L70.5931 9.01088L69.4542 10.368H65.7642V9.44521C64.6787 8.68521 63.5398 8.14243 62.1831 8.30521C60.772 8.4681 59.2531 9.11943 59.4698 10.8022C59.6331 11.9422 61.2609 12.9735 62.0742 13.5707C63.2142 14.3307 64.4076 15.0363 65.6009 15.7962C68.0431 17.3161 70.3765 18.9989 72.6554 20.7902C74.772 22.473 76.942 24.21 78.5698 26.3271L73.5776 25.35C74.4998 24.6985 73.4153 23.9929 72.8187 23.5043C72.0587 22.9072 71.2987 22.4187 70.4309 21.9302C68.7487 21.0073 66.9576 20.5188 65.1131 20.0845C61.5865 19.216 57.0287 18.6732 53.9353 20.8988C53.8265 20.9531 53.7187 21.0617 53.6098 21.1159L51.8731 19.6503C46.2842 21.5502 40.0442 21.0617 34.8898 18.239C32.7731 19.7045 30.332 20.0303 27.8898 20.3017C25.5569 20.5731 23.1152 20.4102 20.7277 20.1931C15.0303 24.9157 7.271 27.6841 0 25.1871L4.88356 23.9387V25.0243C10.1468 25.0243 14.542 21.3331 17.6348 17.4247Z" fill="black" fill-opacity="0.2"/>
</svg>
